<svg xmlns="http://www.w3.org/2000/svg" width="9" height="10"><path d="M8.907 4.769L4.569.109a.279.279 0 00-.428 0l-.465.5a.331.331 0 000 .46l3.658 3.93L3.676 8.93a.326.326 0 00-.093.23.33.33 0 00.093.23l.465.5a.279.279 0 00.428 0l4.338-4.661A.326.326 0 009 5a.33.33 0 00-.093-.23zm0 0l-3.482.23a.325.325 0 00-.093-.23L1 .109a.279.279 0 00-.428 0l-.466.5a.331.331 0 000 .46l3.658 3.93L.1 8.93a.331.331 0 00-.093.23.334.334 0 00.093.23l.466.5a.279.279 0 00.428 0l4.337-4.661a.322.322 0 00.093-.23zm0 0" fill="#727272" fill-rule="evenodd"/></svg>