<svg xmlns="http://www.w3.org/2000/svg" width="16" height="20"><path d="M16 17.29L14.855 4.4a.553.553 0 00-.547-.51h-2.354a3.95 3.95 0 00-7.9 0H1.7a.55.55 0 00-.547.51L.008 17.29v.05a2.854 2.854 0 003 2.67h10a2.854 2.854 0 003-2.67.257.257 0 000-.05zM8.006 1.11a2.844 2.844 0 012.844 2.78H5.16a2.846 2.846 0 012.845-2.78zm5 17.79h-10a1.763 1.763 0 01-1.9-1.53L2.206 5h1.847v1.68a.552.552 0 001.1 0V5h5.692v1.68a.552.552 0 001.1 0V5H13.8l1.1 12.37A1.765 1.765 0 0113 18.9zm0 0" fill="#fe3e57" fill-rule="evenodd"/></svg>