<svg xmlns="http://www.w3.org/2000/svg" width="23" height="20" viewBox="0 0 23 20">
  <defs>
    <style>
      .cls-1 {
        fill: #29282d;
        fill-rule: evenodd;
      }
    </style>
  </defs>
  <path id="love" class="cls-1" d="M1036.89,3562a5.854,5.854,0,0,0-4.82,2.62,9.549,9.549,0,0,0-.57.91,9.549,9.549,0,0,0-.57-0.91,5.863,5.863,0,0,0-9.26-.66,6.811,6.811,0,0,0-1.67,4.56,8.288,8.288,0,0,0,2.35,5.51,52.123,52.123,0,0,0,5.89,5.42c0.89,0.74,1.81,1.52,2.79,2.36l0.03,0.02a0.654,0.654,0,0,0,.88,0l0.03-.02c0.98-.84,1.91-1.62,2.8-2.36a51.927,51.927,0,0,0,5.88-5.42,8.3,8.3,0,0,0,2.36-5.51,6.819,6.819,0,0,0-1.68-4.56A5.906,5.906,0,0,0,1036.89,3562Zm-3,16.44c-0.77.64-1.56,1.3-2.39,2.02-0.83-.72-1.62-1.38-2.39-2.02-4.68-3.92-7.77-6.51-7.77-9.92a5.468,5.468,0,0,1,1.35-3.68,4.507,4.507,0,0,1,3.42-1.51,4.554,4.554,0,0,1,3.72,2.05,7.968,7.968,0,0,1,1.03,2.02,0.675,0.675,0,0,0,1.28,0,8.332,8.332,0,0,1,1.03-2.02,4.512,4.512,0,0,1,7.15-.54,5.51,5.51,0,0,1,1.34,3.68C1041.66,3571.93,1038.57,3574.52,1033.89,3578.44Z" transform="translate(-1020 -3562)"/>
</svg>
