<svg xmlns="http://www.w3.org/2000/svg" width="23" height="20"><path d="M16.89 0a5.854 5.854 0 00-4.82 2.62 9.549 9.549 0 00-.57.91 9.549 9.549 0 00-.57-.91 5.863 5.863 0 00-9.26-.66A6.811 6.811 0 000 6.52a8.288 8.288 0 002.35 5.51 52.123 52.123 0 005.89 5.42c.89.74 1.81 1.52 2.79 2.36l.03.02a.654.654 0 00.88 0l.03-.02c.98-.84 1.91-1.62 2.8-2.36a51.927 51.927 0 005.88-5.42 8.3 8.3 0 002.36-5.51 6.819 6.819 0 00-1.68-4.56A5.906 5.906 0 0016.89 0zm-3 16.44c-.77.64-1.56 1.3-2.39 2.02-.83-.72-1.62-1.38-2.39-2.02-4.68-3.92-7.77-6.51-7.77-9.92a5.468 5.468 0 011.35-3.68 4.507 4.507 0 013.42-1.51 4.554 4.554 0 013.72 2.05 7.968 7.968 0 011.03 2.02.675.675 0 001.28 0 8.332 8.332 0 011.03-2.02 4.512 4.512 0 017.15-.54 5.51 5.51 0 011.34 3.68c0 3.41-3.09 6-7.77 9.92z" fill="#29282d" fill-rule="evenodd"/></svg>