<svg xmlns="http://www.w3.org/2000/svg" width="19" height="20" viewBox="0 0 19 20">
  <defs>
    <style>
      .cls-1 {
        fill: #29282d;
        fill-rule: evenodd;
      }
    </style>
  </defs>
  <path id="search" class="cls-1" d="M898.709,3580.22l-4.682-4.95a8.155,8.155,0,0,0,1.864-5.2,7.944,7.944,0,1,0-7.944,8.08,7.748,7.748,0,0,0,4.551-1.46l4.718,4.99a1.032,1.032,0,0,0,1.464.03,1.067,1.067,0,0,0,.029-1.49h0Zm-10.762-16.11a5.971,5.971,0,1,1-5.869,5.96,5.921,5.921,0,0,1,5.869-5.96h0Zm0,0" transform="translate(-880 -3562)"/>
</svg>
