<?xml version="1.0" encoding="UTF-8"?>
<svg xmlns="http://www.w3.org/2000/svg" xmlns:xlink="http://www.w3.org/1999/xlink" width="50px" height="50px" viewBox="0 0 50 50" version="1.1">
<g id="surface1">
<path style=" stroke:none;fill-rule:nonzero;fill:rgb(0%,0%,0%);fill-opacity:1;" d="M 10.824219 35.605469 L 50 35.605469 L 50 42.75 L 10.824219 42.75 Z M 10.824219 35.605469 "/>
<path style=" stroke:none;fill-rule:nonzero;fill:rgb(0%,0%,0%);fill-opacity:1;" d="M 10.824219 21.535156 L 50 21.535156 L 50 28.679688 L 10.824219 28.679688 Z M 10.824219 21.535156 "/>
<path style=" stroke:none;fill-rule:nonzero;fill:rgb(0%,0%,0%);fill-opacity:1;" d="M 10.824219 7.035156 L 50 7.035156 L 50 14.175781 L 10.824219 14.175781 Z M 10.824219 7.035156 "/>
<path style=" stroke:none;fill-rule:nonzero;fill:rgb(0%,0%,0%);fill-opacity:1;" d="M 0 35.824219 L 7.144531 35.824219 L 7.144531 42.964844 L 0 42.964844 Z M 0 35.824219 "/>
<path style=" stroke:none;fill-rule:nonzero;fill:rgb(0%,0%,0%);fill-opacity:1;" d="M 0 21.535156 L 7.144531 21.535156 L 7.144531 28.679688 L 0 28.679688 Z M 0 21.535156 "/>
<path style=" stroke:none;fill-rule:nonzero;fill:rgb(0%,0%,0%);fill-opacity:1;" d="M 0 7.035156 L 7.144531 7.035156 L 7.144531 14.175781 L 0 14.175781 Z M 0 7.035156 "/>
</g>
</svg>
