<svg xmlns="http://www.w3.org/2000/svg" xmlns:xlink="http://www.w3.org/1999/xlink" width="18px" height="18px" viewBox="0 0 18 18" version="1.1">
<path style=" stroke:none;fill-rule:nonzero;fill:rgb(0%,0%,0%);fill-opacity:1;" d="M 17.960938 6.910156 C 17.863281 6.613281 17.609375 6.398438 17.300781 6.351562 L 12.070312 5.59375 L 9.734375 0.855469 C 9.597656 0.578125 9.3125 0.398438 9 0.398438 C 8.6875 0.398438 8.402344 0.578125 8.265625 0.855469 L 5.929688 5.59375 L 0.699219 6.351562 C 0.390625 6.398438 0.136719 6.613281 0.0390625 6.910156 C -0.0546875 7.207031 0.0234375 7.53125 0.246094 7.75 L 4.03125 11.4375 L 3.136719 16.644531 C 3.085938 16.949219 3.210938 17.261719 3.460938 17.445312 C 3.605469 17.546875 3.773438 17.601562 3.941406 17.601562 C 4.074219 17.601562 4.203125 17.570312 4.324219 17.503906 L 9 15.046875 L 13.675781 17.503906 C 13.796875 17.570312 13.929688 17.597656 14.058594 17.601562 C 14.511719 17.597656 14.875 17.234375 14.875 16.78125 C 14.875 16.71875 14.867188 16.65625 14.855469 16.597656 L 13.96875 11.4375 L 17.753906 7.75 C 17.976562 7.53125 18.054688 7.207031 17.960938 6.910156 Z M 17.960938 6.910156 "/>
</svg>
