<svg xmlns="http://www.w3.org/2000/svg" width="120" height="121"><path d="M59.989 120.99c-.375 0-.748 0-1.121-.01a.582.582 0 01-.576-.6.592.592 0 01.6-.58c1.348.02 2.718 0 4.066-.06a.578.578 0 01.616.56.6.6 0 01-.557.62c-1.004.05-2.017.07-3.028.07zm-5.21-.22a.1.1 0 01-.052-.01 63.303 63.303 0 01-4.116-.5.592.592 0 01.183-1.17c1.333.21 2.691.38 4.035.5a.582.582 0 01.534.64.594.594 0 01-.584.54zm12.3-.2a.588.588 0 01-.582-.52.6.6 0 01.514-.66c1.343-.16 2.694-.37 4.018-.62a.59.59 0 01.219 1.16c-1.35.26-2.729.47-4.1.64h-.07zm-20.405-1.09a.583.583 0 01-.131-.01 55.33 55.33 0 01-4.008-1.08.59.59 0 01.34-1.13c1.291.4 2.613.75 3.93 1.06a.588.588 0 01-.134 1.16zm28.468-.45a.594.594 0 01-.567-.44.586.586 0 01.419-.72c1.3-.35 2.614-.75 3.893-1.18a.58.58 0 01.744.37.594.594 0 01-.367.75c-1.305.44-2.641.85-3.972 1.2a.772.772 0 01-.153.02zm-36.328-1.95a.758.758 0 01-.209-.04 59.268 59.268 0 01-3.826-1.63.591.591 0 01-.286-.78.581.581 0 01.78-.29c1.226.57 2.488 1.11 3.75 1.59a.6.6 0 01-.212 1.15zm44.1-.7a.594.594 0 01-.226-1.14c1.243-.53 2.484-1.1 3.69-1.71a.581.581 0 01.788.26.587.587 0 01-.26.79c-1.231.63-2.5 1.21-3.765 1.75a.611.611 0 01-.234.05zm-51.551-2.79a.575.575 0 01-.282-.07 61.763 61.763 0 01-3.564-2.14.6.6 0 01-.175-.82.578.578 0 01.811-.18c1.136.74 2.312 1.45 3.494 2.1a.6.6 0 01.231.81.592.592 0 01-.522.3zm58.88-.93a.576.576 0 01-.5-.29.6.6 0 01.2-.81 54.46 54.46 0 003.423-2.21.6.6 0 01.816.15.6.6 0 01-.149.83 61.68 61.68 0 01-3.491 2.25.543.543 0 01-.306.08zm-65.783-3.55a.572.572 0 01-.35-.121 60.428 60.428 0 01-3.236-2.618.594.594 0 01-.062-.834.582.582 0 01.827-.062 59.84 59.84 0 003.173 2.566.594.594 0 01.119.828.6.6 0 01-.478.241zm72.536-1.143a.583.583 0 01-.459-.223.6.6 0 01.093-.832 59.725 59.725 0 003.091-2.663.584.584 0 01.83.037.6.6 0 01-.037.836 60.72 60.72 0 01-3.153 2.716.586.586 0 01-.372.129zm-78.76-4.259a.581.581 0 01-.412-.171c-.98-.976-1.939-2-2.849-3.039a.6.6 0 01.052-.835.583.583 0 01.828.052 60.468 60.468 0 002.794 2.98.6.6 0 010 .836.581.581 0 01-.42.177zm84.813-1.33a.581.581 0 01-.4-.163.6.6 0 01-.021-.837 59.153 59.153 0 002.7-3.066.583.583 0 01.826-.078.6.6 0 01.077.834 61.512 61.512 0 01-2.754 3.126.585.585 0 01-.435.184zM12.8 97.5a.585.585 0 01-.467-.231 63.665 63.665 0 01-2.407-3.4.6.6 0 01.164-.82.585.585 0 01.814.166 59.915 59.915 0 002.361 3.336.6.6 0 01-.109.83.581.581 0 01-.356.119zm95.48-1.5a.576.576 0 01-.341-.111.593.593 0 01-.135-.825 59.871 59.871 0 002.258-3.412.584.584 0 01.808-.192.594.594 0 01.191.814 64.919 64.919 0 01-2.3 3.479.584.584 0 01-.481.247zM8.27 90.6a.585.585 0 01-.511-.3 61.384 61.384 0 01-1.919-3.7.6.6 0 01.275-.79.584.584 0 01.783.278 60.513 60.513 0 001.882 3.631.593.593 0 01-.221.806.582.582 0 01-.289.082zm104.33-1.639a.581.581 0 01-.272-.069.593.593 0 01-.246-.8 60.338 60.338 0 001.77-3.694.586.586 0 01.773-.3.6.6 0 01.3.781 61.335 61.335 0 01-1.806 3.769.588.588 0 01-.519.313zM4.725 83.153a.588.588 0 01-.546-.374 60.861 60.861 0 01-1.393-3.939.588.588 0 111.119-.359c.41 1.3.869 2.6 1.366 3.861a.593.593 0 01-.33.768.57.57 0 01-.215.043zm111.189-1.772a.572.572 0 01-.2-.036.593.593 0 01-.354-.757c.457-1.277.875-2.59 1.244-3.9a.586.586 0 01.724-.408.592.592 0 01.4.73 58.689 58.689 0 01-1.269 3.982.587.587 0 01-.544.389zM2.237 75.266a.587.587 0 01-.569-.452A60.45 60.45 0 01.83 70.72a.587.587 0 111.157-.2c.227 1.345.5 2.7.821 4.015a.592.592 0 01-.431.715.614.614 0 01-.139.016zm115.915-1.849a.619.619 0 01-.121-.011.592.592 0 01-.454-.7c.276-1.334.509-2.692.694-4.038a.583.583 0 01.661-.506.59.59 0 01.5.667 60.563 60.563 0 01-.708 4.119.587.587 0 01-.571.469zM.86 67.109a.588.588 0 01-.583-.533 61.93 61.93 0 01-.271-4.171.587.587 0 111.174-.036c.042 1.359.13 2.734.265 4.09a.591.591 0 01-.525.648zm118.414-1.888h-.041a.592.592 0 01-.546-.631 60.782 60.782 0 00.023-7.851.591.591 0 01.549-.628.583.583 0 01.622.555 61.731 61.731 0 01-.022 8.001.589.589 0 01-.585.554zM.607 58.838H.584a.589.589 0 01-.564-.613c.051-1.391.149-2.794.294-4.169a.587.587 0 111.167.124 61.68 61.68 0 00-.289 4.089.587.587 0 01-.585.569zM118.9 53.176a.588.588 0 01-.581-.513c-.177-1.35-.4-2.71-.671-4.043a.587.587 0 111.15-.236c.274 1.36.5 2.747.684 4.124a.588.588 0 01-.5.663.506.506 0 01-.082.005zM1.47 50.61a.583.583 0 01-.578-.694c.239-1.368.529-2.743.861-4.09a.584.584 0 01.711-.431.592.592 0 01.428.717 59.444 59.444 0 00-.844 4.009.589.589 0 01-.578.489zm115.794-5.541a.589.589 0 01-.565-.435 58.872 58.872 0 00-1.22-3.909.593.593 0 01.358-.756.586.586 0 01.749.361c.46 1.311.878 2.653 1.244 3.989a.592.592 0 01-.409.728.607.607 0 01-.157.022zM3.453 42.581a.6.6 0 01-.181-.029.593.593 0 01-.377-.746c.425-1.318.9-2.642 1.418-3.934a.586.586 0 01.764-.328.593.593 0 01.325.77 60.169 60.169 0 00-1.39 3.857.587.587 0 01-.559.41zm111.081-5.309a.589.589 0 01-.54-.357 59.492 59.492 0 00-1.744-3.7.6.6 0 01.252-.8.586.586 0 01.791.253 59.937 59.937 0 011.779 3.772.594.594 0 01-.306.778.564.564 0 01-.232.054zM6.527 34.9a.586.586 0 01-.256-.06.592.592 0 01-.271-.79 60.328 60.328 0 011.944-3.7.586.586 0 01.8-.218.594.594 0 01.216.808 59.82 59.82 0 00-1.907 3.624.585.585 0 01-.526.336zm104.23-4.965a.586.586 0 01-.5-.284 59.562 59.562 0 00-2.235-3.422.6.6 0 01.139-.825.583.583 0 01.818.141 58.825 58.825 0 012.28 3.49.6.6 0 01-.2.814.583.583 0 01-.302.083zM10.625 27.72a.585.585 0 01-.327-.1.6.6 0 01-.159-.821 60.024 60.024 0 012.43-3.389.584.584 0 01.824-.105.6.6 0 01.1.831 59.08 59.08 0 00-2.384 3.323.587.587 0 01-.484.261zm95.388-4.536a.584.584 0 01-.455-.217 59.839 59.839 0 00-2.681-3.083.6.6 0 01.026-.836.584.584 0 01.83.026 61.705 61.705 0 012.734 3.143.6.6 0 01-.083.833.58.58 0 01-.371.134zm-90.35-2a.581.581 0 01-.391-.151.6.6 0 01-.047-.836 61.411 61.411 0 012.868-3.02.584.584 0 01.83.011.6.6 0 01-.01.836 59.492 59.492 0 00-2.812 2.962.586.586 0 01-.438.196zm84.729-4.03a.582.582 0 01-.4-.157 59.124 59.124 0 00-3.076-2.684.6.6 0 01-.088-.832.583.583 0 01.825-.089c1.07.87 2.126 1.791 3.136 2.737a.6.6 0 01.032.836.582.582 0 01-.429.187zM21.541 15.4a.583.583 0 01-.448-.209.6.6 0 01.067-.834c1.05-.9 2.144-1.772 3.251-2.594a.582.582 0 01.82.124.594.594 0 01-.123.827 58.916 58.916 0 00-3.188 2.545.58.58 0 01-.379.141zM94 11.953a.573.573 0 01-.336-.107 59.512 59.512 0 00-3.412-2.233.594.594 0 01-.2-.812.582.582 0 01.805-.2 60.154 60.154 0 013.481 2.278.594.594 0 01.144.823.583.583 0 01-.482.251zM28.145 10.5a.584.584 0 01-.5-.275.6.6 0 01.18-.817 60.635 60.635 0 013.572-2.119.585.585 0 01.8.238.593.593 0 01-.236.8 58.674 58.674 0 00-3.5 2.078.579.579 0 01-.316.095zM86.96 7.693a.565.565 0 01-.266-.065c-1.2-.618-2.442-1.2-3.687-1.737a.594.594 0 01-.31-.776.584.584 0 01.77-.313 59.693 59.693 0 013.761 1.772.6.6 0 01.256.8.587.587 0 01-.524.314zM35.353 6.555a.587.587 0 01-.535-.346.594.594 0 01.291-.784 58.932 58.932 0 013.826-1.6.584.584 0 01.755.347.592.592 0 01-.344.761c-1.262.477-2.523 1-3.75 1.569a.586.586 0 01-.243.048zM79.4 4.449a.582.582 0 01-.192-.032 56.446 56.446 0 00-3.886-1.2.591.591 0 01.3-1.143c1.331.361 2.665.774 3.965 1.227a.592.592 0 01-.187 1.143zm-36.367-.795a.592.592 0 01-.167-1.159 59.477 59.477 0 014.014-1.05.591.591 0 01.256 1.154c-1.317.3-2.641.643-3.935 1.03a.58.58 0 01-.168.02zm28.442-1.356a.564.564 0 01-.114-.011 58.516 58.516 0 00-4.014-.648.592.592 0 01.146-1.174c1.365.171 2.743.395 4.094.66a.593.593 0 01-.112 1.168zm-20.431-.444a.592.592 0 01-.087-1.177 60.118 60.118 0 014.118-.481.592.592 0 01.1 1.179c-1.348.111-2.707.27-4.038.473a.662.662 0 01-.093.001zm12.287-.581H63.3a59.242 59.242 0 00-4.064-.087h-.008a.592.592 0 01-.007-1.184 60.902 60.902 0 014.145.089.592.592 0 01-.035 1.177zm-3.341 107.5c-1.257 0-2.526-.05-3.772-.148a.59.59 0 01-.539-.635.579.579 0 01.631-.544c1.215.1 2.452.144 3.679.144h.374a.592.592 0 010 1.183zm4.477-.212a.591.591 0 01-.055-1.179c1.344-.129 2.7-.316 4.017-.56a.592.592 0 01.211 1.165 48.02 48.02 0 01-4.118.572.515.515 0 01-.055.002zm-12.278-.434a.544.544 0 01-.1-.008 47.37 47.37 0 01-4.066-.865.591.591 0 01.292-1.146c1.3.337 2.636.621 3.967.844a.592.592 0 01-.093 1.175zm20.349-1.05a.593.593 0 01-.155-1.163c1.3-.359 2.6-.781 3.859-1.253a.586.586 0 01.754.348.592.592 0 01-.346.761 47.15 47.15 0 01-3.956 1.285.57.57 0 01-.156.022zm-28.294-1.01a.586.586 0 01-.2-.034c-1.3-.463-2.6-.991-3.858-1.567a.593.593 0 01-.291-.783.584.584 0 01.777-.294 46.58 46.58 0 003.763 1.528.593.593 0 01-.191 1.15zm35.984-1.867a.586.586 0 01-.531-.339.594.594 0 01.279-.788 46.987 46.987 0 003.584-1.91.584.584 0 01.8.212.593.593 0 01-.21.809 47.4 47.4 0 01-3.674 1.958.579.579 0 01-.248.058zm-43.457-1.558a.58.58 0 01-.288-.076 48.62 48.62 0 01-3.529-2.217.594.594 0 01-.153-.822.584.584 0 01.816-.154c1.112.768 2.271 1.5 3.443 2.163a.6.6 0 01.223.806.586.586 0 01-.512.3zm50.536-2.621a.586.586 0 01-.48-.25.6.6 0 01.14-.825 45.947 45.947 0 003.2-2.506.583.583 0 01.827.069.6.6 0 01-.068.834 48.48 48.48 0 01-3.285 2.569.584.584 0 01-.334.109zM30 97.966a.577.577 0 01-.372-.134 48.033 48.033 0 01-3.1-2.8.6.6 0 01-.009-.837.584.584 0 01.83-.01 46.824 46.824 0 003.021 2.729.6.6 0 01.081.832.583.583 0 01-.451.22zm63.565-3.293a.585.585 0 01-.414-.172.6.6 0 010-.837 47.203 47.203 0 002.731-3.024.582.582 0 01.826-.075.594.594 0 01.075.833 48.119 48.119 0 01-2.8 3.1.584.584 0 01-.417.175zm-69.436-2.486a.584.584 0 01-.445-.207 48.352 48.352 0 01-2.574-3.29.6.6 0 01.133-.826.585.585 0 01.82.134 48.41 48.41 0 002.511 3.211.6.6 0 01-.062.834.579.579 0 01-.382.144zM98.82 88.32a.578.578 0 01-.335-.106.6.6 0 01-.146-.824c.77-1.115 1.5-2.276 2.173-3.454a.584.584 0 01.8-.218.594.594 0 01.216.808 48.278 48.278 0 01-2.228 3.54.585.585 0 01-.479.254zm-79.486-2.844a.587.587 0 01-.5-.288 49.01 49.01 0 01-1.972-3.689.594.594 0 01.273-.79.585.585 0 01.784.275 47.974 47.974 0 001.924 3.6.594.594 0 01-.2.81.578.578 0 01-.308.082zm83.577-4.33a.586.586 0 01-.247-.054.6.6 0 01-.285-.786 46.805 46.805 0 001.546-3.781.587.587 0 01.752-.356.594.594 0 01.352.758c-.471 1.311-1 2.616-1.585 3.877a.586.586 0 01-.532.342zM15.76 78.034a.587.587 0 01-.548-.382c-.491-1.3-.93-2.64-1.307-3.979a.588.588 0 111.13-.323c.366 1.306.8 2.612 1.274 3.881a.591.591 0 01-.548.803zm89.945-4.667a.56.56 0 01-.151-.02.591.591 0 01-.417-.723c.345-1.308.637-2.651.87-3.993a.587.587 0 111.156.2 48.552 48.552 0 01-.891 4.094.587.587 0 01-.566.442zm-92.18-3.292a.589.589 0 01-.576-.481 48.508 48.508 0 01-.6-4.146.587.587 0 111.168-.121c.138 1.356.335 2.717.586 4.046a.591.591 0 01-.466.692.715.715 0 01-.111.01zm93.589-4.856a.435.435 0 01-.051 0 .59.59 0 01-.534-.64c.114-1.347.173-2.72.173-4.084q0-.756-.024-1.507a.591.591 0 01.568-.611.578.578 0 01.6.574q.026.768.025 1.544c0 1.4-.06 2.806-.178 4.186a.588.588 0 01-.578.538zm-94.422-3.371a.59.59 0 01-.587-.583c0-.256-.006-.514-.006-.771 0-1.136.039-2.286.118-3.416a.587.587 0 111.171.082 48.648 48.648 0 00-.109 4.087.59.59 0 01-.578.6h-.009zm94.268-6.417a.589.589 0 01-.582-.521 47.613 47.613 0 00-.651-4.035.588.588 0 111.15-.241c.279 1.358.5 2.75.667 4.136a.59.59 0 01-.514.657.548.548 0 01-.069.004zM13.267 53.6a.57.57 0 01-.092-.007.59.59 0 01-.488-.676 49.02 49.02 0 01.825-4.108.587.587 0 111.139.285 45.964 45.964 0 00-.805 4.007.589.589 0 01-.579.499zm92.026-6.263a.588.588 0 01-.562-.421c-.388-1.3-.838-2.6-1.336-3.86a.593.593 0 01.328-.769.584.584 0 01.762.33 48.651 48.651 0 011.37 3.957.593.593 0 01-.393.737.556.556 0 01-.169.023zm-90.047-1.762a.607.607 0 01-.191-.032.593.593 0 01-.364-.752 47.841 47.841 0 011.523-3.9.586.586 0 01.775-.3.594.594 0 01.3.781 47.12 47.12 0 00-1.486 3.806.588.588 0 01-.557.394zm87.01-5.919a.586.586 0 01-.525-.326 47.78 47.78 0 00-1.98-3.567.593.593 0 01.19-.814.585.585 0 01.808.192 48.169 48.169 0 012.03 3.657.593.593 0 01-.26.794.57.57 0 01-.263.061zm-83.674-1.643a.574.574 0 01-.284-.074.593.593 0 01-.229-.8 48.95 48.95 0 012.171-3.575.583.583 0 01.814-.16.594.594 0 01.159.821 47.45 47.45 0 00-2.117 3.487.586.586 0 01-.514.298zm79.36-5.392a.582.582 0 01-.471-.238 46.922 46.922 0 00-2.561-3.17.594.594 0 01.048-.835.583.583 0 01.829.049 49.154 49.154 0 012.625 3.249.6.6 0 01-.12.829.588.588 0 01-.35.113zm-74.776-1.47a.576.576 0 01-.368-.132.6.6 0 01-.089-.832 48.8 48.8 0 012.749-3.144.584.584 0 01.83-.017.6.6 0 01.017.837 47.283 47.283 0 00-2.682 3.068.584.584 0 01-.457.217zm69.324-4.712a.589.589 0 01-.4-.161 46.659 46.659 0 00-3.064-2.68.6.6 0 01-.095-.832.584.584 0 01.825-.1 48.473 48.473 0 013.141 2.746.6.6 0 01.023.837.584.584 0 01-.43.187zm-63.637-1.253a.584.584 0 01-.442-.2.6.6 0 01.055-.836c1.038-.916 2.13-1.8 3.244-2.621a.584.584 0 01.82.128.594.594 0 01-.127.826 46.395 46.395 0 00-3.164 2.558.582.582 0 01-.386.142zm57.21-3.893a.585.585 0 01-.323-.1 46.916 46.916 0 00-3.476-2.108.593.593 0 01-.236-.8.585.585 0 01.8-.237 47.634 47.634 0 013.564 2.16.6.6 0 01.165.82.583.583 0 01-.494.262zm-50.593-1a.584.584 0 01-.5-.285.594.594 0 01.2-.812 48.245 48.245 0 013.643-2.017.584.584 0 01.786.268.6.6 0 01-.266.793c-1.207.6-2.4 1.263-3.553 1.967a.588.588 0 01-.31.087zm43.382-2.954a.573.573 0 01-.234-.05 45.567 45.567 0 00-3.787-1.466.6.6 0 01-.37-.75.588.588 0 01.743-.373c1.312.442 2.618.948 3.883 1.5a.593.593 0 01.3.779.585.585 0 01-.535.361zm-36.028-.707a.585.585 0 01-.546-.377.594.594 0 01.333-.767c1.288-.5 2.613-.959 3.936-1.349a.584.584 0 01.728.4.593.593 0 01-.4.734 45.342 45.342 0 00-3.838 1.316.6.6 0 01-.213.044zm28.247-1.922a.539.539 0 01-.137-.016 46.617 46.617 0 00-3.98-.779.592.592 0 01.173-1.171c1.367.206 2.74.476 4.081.8a.591.591 0 01-.137 1.167zm-20.372-.4a.592.592 0 01-.115-1.172 47.855 47.855 0 014.109-.639.592.592 0 01.128 1.177 46.267 46.267 0 00-4.007.623.574.574 0 01-.114.016zm12.259-.827h-.036a48.143 48.143 0 00-4.055-.078.6.6 0 01-.6-.577.591.591 0 01.573-.606 48.826 48.826 0 014.155.08.593.593 0 01-.037 1.186zm-4.735 83.322h-.03a35.923 35.923 0 01-4.148-.448.59.59 0 01-.483-.68.582.582 0 01.675-.487 34.928 34.928 0 004.014.433.594.594 0 01-.028 1.187zm4.1-.033a.592.592 0 01-.037-1.182 35.065 35.065 0 004.006-.5.592.592 0 01.211 1.164 35.819 35.819 0 01-4.14.515h-.04zm-12.189-1.32a.58.58 0 01-.163-.024 35.7 35.7 0 01-3.937-1.4.593.593 0 01-.314-.774.586.586 0 01.769-.317A34.521 34.521 0 0050.3 94.3a.593.593 0 01-.163 1.157zm20.252-.165a.592.592 0 01-.172-1.157A35.037 35.037 0 0074 92.719a.584.584 0 01.774.3.594.594 0 01-.3.779 35.871 35.871 0 01-3.913 1.464.57.57 0 01-.172.03zm-27.814-3.035a.579.579 0 01-.288-.077 36.233 36.233 0 01-3.511-2.277.6.6 0 01-.128-.826.584.584 0 01.82-.131 35.052 35.052 0 003.4 2.2.6.6 0 01.223.807.589.589 0 01-.513.309zm35.318-.285a.588.588 0 01-.507-.293.6.6 0 01.21-.81 34.787 34.787 0 003.359-2.255.583.583 0 01.822.116.6.6 0 01-.116.829 36.023 36.023 0 01-3.472 2.331.571.571 0 01-.293.087zm-41.945-4.581a.581.581 0 01-.4-.157 36.639 36.639 0 01-2.9-3.024.6.6 0 01.062-.834.582.582 0 01.828.062 35.709 35.709 0 002.806 2.926.594.594 0 01.034.836.582.582 0 01-.427.196zM84.44 87a.579.579 0 01-.425-.184.593.593 0 01.021-.836 35.266 35.266 0 002.76-2.971.583.583 0 01.827-.075.594.594 0 01.075.833 36.668 36.668 0 01-2.853 3.07.583.583 0 01-.405.163zM30.6 81.13a.585.585 0 01-.487-.26 36.662 36.662 0 01-2.137-3.611.6.6 0 01.25-.8.585.585 0 01.791.252 35.506 35.506 0 002.068 3.494.594.594 0 01-.157.822.579.579 0 01-.328.103zm59.089-.474a.588.588 0 01-.321-.1.6.6 0 01-.169-.819 35.334 35.334 0 002.013-3.53.583.583 0 01.787-.264.594.594 0 01.263.794 36.675 36.675 0 01-2.081 3.647.586.586 0 01-.491.272zM26.817 73.8a.587.587 0 01-.549-.381 36.876 36.876 0 01-1.255-4.013.593.593 0 01.426-.719.587.587 0 01.713.429A35.415 35.415 0 0027.365 73a.593.593 0 01-.34.763.585.585 0 01-.208.037zm66.541-.539a.6.6 0 01-.2-.035.593.593 0 01-.352-.758 35.186 35.186 0 001.151-3.9.587.587 0 111.143.27 36.533 36.533 0 01-1.19 4.036.589.589 0 01-.552.388zm-68.546-7.474a.588.588 0 01-.581-.514 36.944 36.944 0 01-.3-4.194.59.59 0 01.578-.6h.009a.59.59 0 01.587.583 35.49 35.49 0 00.294 4.058.592.592 0 01-.5.664c-.036.002-.061.004-.087.004zm70.422-.572a.512.512 0 01-.067 0 .589.589 0 01-.516-.655 36.26 36.26 0 00.23-4.064c0-.381-.006-.761-.018-1.137a.587.587 0 111.173-.038q.019.585.018 1.176a37.255 37.255 0 01-.238 4.2.587.587 0 01-.582.519zm-70.551-7.688h-.059a.591.591 0 01-.526-.647 36.843 36.843 0 01.649-4.156.588.588 0 111.148.252 35.589 35.589 0 00-.629 4.019.589.589 0 01-.583.533zm70.4-1.722a.588.588 0 01-.58-.5 35.364 35.364 0 00-.822-3.984.592.592 0 01.415-.725.585.585 0 01.719.417 36.56 36.56 0 01.85 4.119.592.592 0 01-.5.672.636.636 0 01-.082.002zm-68.656-6.354a.584.584 0 01-.191-.032.593.593 0 01-.363-.753 36.711 36.711 0 011.584-3.894.583.583 0 01.783-.277.593.593 0 01.276.789 35.387 35.387 0 00-1.534 3.767.587.587 0 01-.555.401zm66.524-1.624a.586.586 0 01-.545-.373 35.122 35.122 0 00-1.711-3.683.592.592 0 01.237-.8.583.583 0 01.795.237 36.315 36.315 0 011.769 3.809.592.592 0 01-.327.769.578.578 0 01-.218.042zM29.975 42a.582.582 0 01-.313-.091.6.6 0 01-.182-.816 36.5 36.5 0 012.43-3.422.584.584 0 01.825-.088.6.6 0 01.088.832 35.435 35.435 0 00-2.351 3.31.582.582 0 01-.497.275zm59.078-1.435a.582.582 0 01-.481-.253 35.6 35.6 0 00-2.506-3.191.6.6 0 01.048-.835.584.584 0 01.829.049 36.372 36.372 0 012.589 3.3.593.593 0 01-.143.823.579.579 0 01-.336.106zm-53.928-5a.587.587 0 01-.419-.177.6.6 0 01.007-.837 36.633 36.633 0 013.14-2.771.584.584 0 01.824.1.6.6 0 01-.1.831 35.4 35.4 0 00-3.038 2.681.583.583 0 01-.414.176zM83.6 34.39a.584.584 0 01-.39-.15 35.539 35.539 0 00-3.163-2.533.593.593 0 01-.142-.823.584.584 0 01.818-.144A36.6 36.6 0 0184 33.357a.594.594 0 01.047.835.581.581 0 01-.447.198zm-42.011-3.9a.584.584 0 01-.5-.284.594.594 0 01.2-.812 36.1 36.1 0 013.684-1.973.591.591 0 01.49 1.076 34.756 34.756 0 00-3.565 1.908.581.581 0 01-.305.087zm35.306-.86a.577.577 0 01-.279-.072 34.843 34.843 0 00-3.655-1.732.593.593 0 01-.326-.769.584.584 0 01.763-.329 35.6 35.6 0 013.778 1.791.592.592 0 01-.276 1.113zm-27.857-2.581a.593.593 0 01-.182-1.155 35.588 35.588 0 014.039-1.061.591.591 0 01.229 1.16 34.55 34.55 0 00-3.9 1.027.61.61 0 01-.182.031zm20.247-.494a.589.589 0 01-.154-.021 34.79 34.79 0 00-3.951-.834.592.592 0 01.174-1.171 35.615 35.615 0 014.084.863.592.592 0 01-.149 1.165zm-12.211-1.123a.592.592 0 01-.047-1.182c.976-.08 1.967-.12 2.947-.12.424-.009.818.006 1.225.02a.591.591 0 01-.039 1.182c-.394-.012-.771-.007-1.186-.019-.948 0-1.908.039-2.852.116z" fill="#ffb534" fill-rule="evenodd"/></svg>