<svg xmlns="http://www.w3.org/2000/svg" width="23" height="25" viewBox="0 0 23 25">
  <path d="M857,1010.44l-1.451-.11-0.121,1.69a12.253,12.253,0,0,0-9.07-4.02,12.5,12.5,0,0,0,0,25,12.3,12.3,0,0,0,10.265-5.55l-1.208-.82a10.861,10.861,0,0,1-9.057,4.9,11.031,11.031,0,0,1,0-22.06,10.806,10.806,0,0,1,8.057,3.61l-1.851-.14-0.106,1.47,4.234,0.31Zm-18.934,10.34a2.44,2.44,0,0,0,.948.24c0.356,0,.608-0.11.608-0.37a0.539,0.539,0,0,0-.624-0.41h-0.46v-0.73h0.443a0.477,0.477,0,0,0,.554-0.31c0-.18-0.176-0.29-0.51-0.29a2.017,2.017,0,0,0-.86.23l-0.219-.74a2.663,2.663,0,0,1,1.309-.3,1.115,1.115,0,0,1,1.331.92,0.867,0.867,0,0,1-.7.85v0.01a0.863,0.863,0,0,1,.816.84c0,0.7-.657,1.11-1.611,1.11a2.511,2.511,0,0,1-1.243-.28Zm4.618,1.05a1.538,1.538,0,1,1,.006,0h-0.006Zm0.011-.75c0.28,0,.466-0.35.466-1.11s-0.186-1.11-.471-1.11-0.471.34-.471,1.11,0.186,1.11.471,1.11h0Zm3.183-3a9.8,9.8,0,0,1,1.3-.08,2.885,2.885,0,0,1,1.66.38,1.569,1.569,0,0,1,.734,1.41,1.788,1.788,0,0,1-.679,1.52,3.174,3.174,0,0,1-1.918.5,7.768,7.768,0,0,1-1.095-.06v-3.67Zm1.035,2.92a1.81,1.81,0,0,0,.241.01,1.126,1.126,0,0,0,1.309-1.17,1.027,1.027,0,0,0-1.188-1.05,1.909,1.909,0,0,0-.362.03V1021Zm5.724,0.09a3.95,3.95,0,0,0,.044.68H851.75l-0.055-.24h-0.022a0.981,0.981,0,0,1-.788.3,0.875,0.875,0,0,1-.943-0.85c0-.74.647-1.07,1.666-1.07v-0.02c0-.1-0.066-0.22-0.472-0.22a1.86,1.86,0,0,0-.816.21l-0.181-.65a2.573,2.573,0,0,1,1.178-.26,1.133,1.133,0,0,1,1.32,1.21v0.91Zm-1-.55c-0.455,0-.674.11-0.674,0.34a0.247,0.247,0,0,0,.3.24,0.4,0.4,0,0,0,.367-0.28,0.689,0.689,0,0,0,.011-0.15v-0.15Zm2.443-1.5,0.356,1.18c0.044,0.16.1,0.38,0.137,0.51H854.6c0.039-.14.083-0.36,0.116-0.51l0.268-1.18h1.128l-0.569,1.56a4.369,4.369,0,0,1-1.09,2.02,1.683,1.683,0,0,1-.97.38l-0.192-.88a1.2,1.2,0,0,0,.335-0.07,0.955,0.955,0,0,0,.35-0.25,0.223,0.223,0,0,0,.055-0.13,0.406,0.406,0,0,0-.044-0.16l-1.057-2.47h1.156Z" transform="translate(-834 -1008)"/>
</svg>
