<svg xmlns="http://www.w3.org/2000/svg" width="40" height="25" viewBox="0 0 40 25">
  <path d="M462.2,1018.6l-1.036-4.1a0.613,0.613,0,0,0,.5-0.6v-0.66a2.614,2.614,0,0,0-2.63-2.6h-4.719v-1.36a1.286,1.286,0,0,0-1.294-1.28H428.963a1.286,1.286,0,0,0-1.294,1.28v11.22a0.627,0.627,0,0,0,1.253,0v-11.22a0.036,0.036,0,0,1,.041-0.04h24.052a0.037,0.037,0,0,1,.042.04v11.22a0.626,0.626,0,0,0,1.252,0v-0.7H461.7a2.047,2.047,0,0,1,1.947,1.4H461.7a0.624,0.624,0,0,0-.626.62v1.32a1.953,1.953,0,0,0,1.962,1.94h0.71v2.72h-1.638a3.981,3.981,0,0,0-7.5,0h-0.3v-4.66a0.626,0.626,0,0,0-1.252,0v4.66h-13a3.981,3.981,0,0,0-7.5,0h-3.6a0.042,0.042,0,0,1-.041-0.04v-1.36h2.714a0.62,0.62,0,1,0,0-1.24h-6.013a0.62,0.62,0,1,0,0,1.24h2.046v1.36a1.286,1.286,0,0,0,1.294,1.28h3.384c0,0.01,0,.03,0,0.04a3.967,3.967,0,0,0,7.933,0c0-.01,0-0.03,0-0.04h14.116c0,0.01,0,.03,0,0.04a3.967,3.967,0,0,0,7.933,0c0-.01,0-0.03,0-0.04h2.047a0.625,0.625,0,0,0,.627-0.62v-6.6A3.276,3.276,0,0,0,462.2,1018.6Zm-7.89-4.08h5.566l1.023,4.04h-6.589v-4.04Zm4.719-2.64a1.37,1.37,0,0,1,1.378,1.36v0.04h-6.1v-1.4h4.719Zm-22.715,19.88a2.68,2.68,0,1,1,2.714-2.68A2.7,2.7,0,0,1,436.313,1031.76Zm22.047,0a2.68,2.68,0,1,1,2.714-2.68A2.7,2.7,0,0,1,458.36,1031.76Zm4.676-7.92a0.7,0.7,0,0,1-.709-0.7v-0.7h1.419v1.4h-0.71Zm-26.723,3.96a1.28,1.28,0,1,0,1.294,1.28A1.293,1.293,0,0,0,436.313,1027.8Zm22.047,0a1.28,1.28,0,1,0,1.294,1.28A1.293,1.293,0,0,0,458.36,1027.8Zm-17.329-2.02a0.624,0.624,0,0,0,.626.62h9.354a0.62,0.62,0,1,0,0-1.24h-9.354A0.624,0.624,0,0,0,441.031,1025.78Zm-14.072-2.02h8.017a0.62,0.62,0,1,0,0-1.24h-8.017A0.62,0.62,0,1,0,426.959,1023.76Zm18.932-9.64-5.57,5.5-2.9-2.86a0.634,0.634,0,0,0-.885,0,0.619,0.619,0,0,0,0,.88l3.34,3.3a0.635,0.635,0,0,0,.886,0l6.013-5.94a0.62,0.62,0,0,0,0-.88A0.635,0.635,0,0,0,445.891,1014.12Z" transform="translate(-425 -1008)"/>
</svg>
