<svg xmlns="http://www.w3.org/2000/svg" width="105.156" height="105" viewBox="0 0 105.156 105">
  <defs>
    <style>
      .cls-1 {
        fill: #34c3ff;
        fill-rule: evenodd;
      }
    </style>
  </defs>
  <path class="cls-1" d="M205.4,5899.77a2.155,2.155,0,1,0,2.161,2.15A2.154,2.154,0,0,0,205.4,5899.77Zm-14.406,0a2.155,2.155,0,1,0,2.159,2.15A2.155,2.155,0,0,0,190.992,5899.77Zm0-14.39a2.16,2.16,0,1,0,2.159,2.16A2.163,2.163,0,0,0,190.992,5885.38Zm-14.408,0h0a2.16,2.16,0,1,0,0,4.32h0A2.16,2.16,0,1,0,176.584,5885.38Zm21.611,21.58a2.155,2.155,0,1,0,2.16,2.16A2.156,2.156,0,0,0,198.2,5906.96Zm14.407,0a2.155,2.155,0,1,0,2.161,2.16A2.157,2.157,0,0,0,212.6,5906.96ZM198.2,5892.57a2.16,2.16,0,1,0,2.16,2.16A2.163,2.163,0,0,0,198.2,5892.57Zm-14.407,0a2.16,2.16,0,1,0,2.161,2.16A2.163,2.163,0,0,0,183.788,5892.57Zm36.017,35.96a2.16,2.16,0,1,0,2.16,2.16A2.163,2.163,0,0,0,219.805,5928.53Zm-14.407,0a2.16,2.16,0,1,0,2.161,2.16A2.162,2.162,0,0,0,205.4,5928.53Zm-14.406,0a2.16,2.16,0,1,0,2.159,2.16A2.163,2.163,0,0,0,190.992,5928.53Zm28.813-14.38a2.155,2.155,0,1,0,2.16,2.16A2.163,2.163,0,0,0,219.805,5914.15Zm-14.407,0a2.155,2.155,0,1,0,2.161,2.16A2.162,2.162,0,0,0,205.4,5914.15Zm-14.406,0a2.155,2.155,0,1,0,2.159,2.16A2.163,2.163,0,0,0,190.992,5914.15Zm-14.408,0h0a2.155,2.155,0,1,0,0,4.31h0A2.155,2.155,0,1,0,176.584,5914.15Zm21.611,21.57a2.16,2.16,0,1,0,2.16,2.16A2.163,2.163,0,0,0,198.2,5935.72Zm14.407,0a2.16,2.16,0,1,0,2.161,2.16A2.163,2.163,0,0,0,212.6,5935.72ZM198.2,5921.34a2.16,2.16,0,1,0,2.16,2.16A2.163,2.163,0,0,0,198.2,5921.34Zm16.566,2.16a2.161,2.161,0,1,0-2.161,2.16A2.163,2.163,0,0,0,214.761,5923.5Zm12.247-2.16a2.16,2.16,0,1,0,2.161,2.16A2.163,2.163,0,0,0,227.008,5921.34Zm-43.22,0a2.16,2.16,0,1,0,2.161,2.16A2.163,2.163,0,0,0,183.788,5921.34Zm7.2,35.96a2.16,2.16,0,1,0,2.159,2.16A2.163,2.163,0,0,0,190.992,5957.3Zm14.406-14.38a2.155,2.155,0,1,0,2.161,2.15A2.154,2.154,0,0,0,205.4,5942.92Zm-14.406,0a2.155,2.155,0,1,0,2.159,2.15A2.155,2.155,0,0,0,190.992,5942.92Zm-14.408,0h0a2.155,2.155,0,1,0,0,4.31h0A2.155,2.155,0,1,0,176.584,5942.92Zm21.611,7.19a2.155,2.155,0,1,0,2.16,2.16A2.156,2.156,0,0,0,198.2,5950.11Zm-14.407,0a2.155,2.155,0,1,0,2.161,2.16A2.157,2.157,0,0,0,183.788,5950.11Zm-7.2,21.57h0a2.16,2.16,0,1,0,0,4.32h0A2.16,2.16,0,1,0,176.584,5971.68Zm0-96.37a2.155,2.155,0,1,0-2.162-2.15A2.154,2.154,0,0,0,176.584,5875.31Zm-7.2,2.88a2.155,2.155,0,1,0,2.161,2.16A2.163,2.163,0,0,0,169.38,5878.19Zm14.408,4.31a2.155,2.155,0,1,0-2.163-2.15A2.155,2.155,0,0,0,183.788,5882.5Zm-7.2,21.58a2.155,2.155,0,1,0-2.162-2.16A2.163,2.163,0,0,0,176.584,5904.08Zm-7.2,2.88a2.155,2.155,0,1,0,2.161,2.16A2.156,2.156,0,0,0,169.38,5906.96Zm14.408,4.31a2.155,2.155,0,1,0-2.163-2.15A2.155,2.155,0,0,0,183.788,5911.27Zm-14.408-18.7a2.16,2.16,0,1,0,2.161,2.16A2.163,2.163,0,0,0,169.38,5892.57Zm-13.565.17a2.141,2.141,0,0,0-.841-0.17h0a2.16,2.16,0,1,0,0,4.32h0a2.16,2.16,0,0,0,2.161-2.16A2.168,2.168,0,0,0,155.815,5892.74Zm20.769,40.11a2.16,2.16,0,1,0-2.162-2.16A2.163,2.163,0,0,0,176.584,5932.85Zm-7.2,2.87a2.16,2.16,0,1,0,2.161,2.16A2.163,2.163,0,0,0,169.38,5935.72Zm14.408,4.32a2.16,2.16,0,1,0-2.163-2.16A2.163,2.163,0,0,0,183.788,5940.04Zm-14.408-18.7a2.16,2.16,0,1,0,2.161,2.16A2.163,2.163,0,0,0,169.38,5921.34Zm-13.565.17a2.141,2.141,0,0,0-.841-0.17h0a2.16,2.16,0,1,0,0,4.32h0a2.141,2.141,0,0,0,.841-0.17A2.16,2.16,0,0,0,155.815,5921.51Zm20.769,40.11a2.16,2.16,0,1,0-2.162-2.16A2.163,2.163,0,0,0,176.584,5961.62Zm-7.2,2.87a2.16,2.16,0,1,0,2.161,2.16A2.163,2.163,0,0,0,169.38,5964.49Zm14.408,0a2.16,2.16,0,1,0,2.16,2.16A2.163,2.163,0,0,0,183.788,5964.49Zm-14.408-14.38a2.155,2.155,0,1,0,2.161,2.16A2.156,2.156,0,0,0,169.38,5950.11Zm-13.565.17a2.141,2.141,0,0,0-.841-0.17h0a2.157,2.157,0,0,0-1.992,1.32,2.147,2.147,0,0,0,0,1.67,2.157,2.157,0,0,0,1.992,1.32h0A2.154,2.154,0,0,0,155.815,5950.28Zm6.363-50.51h0a2.155,2.155,0,1,0,0,4.31h0A2.155,2.155,0,1,0,162.178,5899.77Zm-14.408,0a2.155,2.155,0,1,0,2.161,2.15A2.154,2.154,0,0,0,147.77,5899.77Zm14.408-14.39h0a2.16,2.16,0,1,0,0,4.32h0a2.168,2.168,0,0,0,1.989-1.32A2.16,2.16,0,0,0,162.178,5885.38Zm-21.612,21.58a2.155,2.155,0,1,0,2.162,2.16A2.155,2.155,0,0,0,140.566,5906.96Zm14.408,0a2.155,2.155,0,1,0,2.161,2.16A2.155,2.155,0,0,0,154.974,5906.96Zm7.2,21.57h0a2.16,2.16,0,1,0,0,4.32h0A2.16,2.16,0,0,0,162.178,5928.53Zm-14.408,0a2.16,2.16,0,1,0,2.161,2.16A2.162,2.162,0,0,0,147.77,5928.53Zm-14.406,0a2.16,2.16,0,1,0,2.16,2.16A2.163,2.163,0,0,0,133.364,5928.53Zm28.814-14.38h0a2.155,2.155,0,0,0-1.992,1.32,2.117,2.117,0,0,0-.169.84,2.191,2.191,0,0,0,.169.84,2.162,2.162,0,0,0,1.992,1.31h0a2.147,2.147,0,0,0,2.159-2.15,2.1,2.1,0,0,0-.17-0.84A2.152,2.152,0,0,0,162.178,5914.15Zm-14.408,0a2.155,2.155,0,1,0,2.161,2.16A2.162,2.162,0,0,0,147.77,5914.15Zm-14.406,0a2.155,2.155,0,1,0,2.16,2.16A2.163,2.163,0,0,0,133.364,5914.15Zm7.2,21.57a2.16,2.16,0,1,0,2.162,2.16A2.161,2.161,0,0,0,140.566,5935.72Zm14.408,0a2.16,2.16,0,1,0,2.161,2.16A2.161,2.161,0,0,0,154.974,5935.72Zm-14.408-14.38a2.16,2.16,0,1,0,2.162,2.16A2.161,2.161,0,0,0,140.566,5921.34Zm-14.406,0a2.16,2.16,0,1,0,2.162,2.16A2.162,2.162,0,0,0,126.16,5921.34Zm36.018,35.96h0a2.16,2.16,0,1,0,0,4.32h0a2.168,2.168,0,0,0,1.989-1.32A2.16,2.16,0,0,0,162.178,5957.3Zm0-14.38h0a2.162,2.162,0,0,0-1.992,1.31,2.191,2.191,0,0,0-.169.84,2.117,2.117,0,0,0,.169.84,2.155,2.155,0,0,0,1.992,1.32h0a2.152,2.152,0,0,0,1.989-1.32,2.1,2.1,0,0,0,.17-0.84A2.147,2.147,0,0,0,162.178,5942.92Zm-14.408,0a2.155,2.155,0,1,0,2.161,2.15A2.154,2.154,0,0,0,147.77,5942.92Z" transform="translate(-124 -5871)"/>
</svg>
