<svg xmlns="http://www.w3.org/2000/svg" width="105.156" height="105"><path d="M81.4 28.77a2.155 2.155 0 102.161 2.15 2.154 2.154 0 00-2.161-2.15zm-14.406 0a2.155 2.155 0 102.159 2.15 2.155 2.155 0 00-2.161-2.15zm0-14.39a2.16 2.16 0 102.159 2.16 2.163 2.163 0 00-2.161-2.16zm-14.408 0a2.16 2.16 0 100 4.32 2.16 2.16 0 10-.002-4.32zm21.611 21.58a2.155 2.155 0 102.16 2.16 2.156 2.156 0 00-2.157-2.16zm14.407 0a2.155 2.155 0 102.161 2.16 2.157 2.157 0 00-2.165-2.16zM74.2 21.57a2.16 2.16 0 102.16 2.16 2.163 2.163 0 00-2.16-2.16zm-14.407 0a2.16 2.16 0 102.161 2.16 2.163 2.163 0 00-2.166-2.16zM95.81 57.53a2.16 2.16 0 102.16 2.16 2.163 2.163 0 00-2.165-2.16zm-14.407 0a2.16 2.16 0 102.161 2.16 2.162 2.162 0 00-2.164-2.16zm-14.406 0a2.16 2.16 0 102.159 2.16 2.163 2.163 0 00-2.164-2.16zM95.81 43.15a2.155 2.155 0 102.16 2.16 2.163 2.163 0 00-2.165-2.16zm-14.407 0a2.155 2.155 0 102.161 2.16 2.162 2.162 0 00-2.164-2.16zm-14.406 0a2.155 2.155 0 102.159 2.16 2.163 2.163 0 00-2.164-2.16zm-14.408 0a2.155 2.155 0 100 4.31 2.155 2.155 0 10-.005-4.31zM74.2 64.72a2.16 2.16 0 102.16 2.16 2.163 2.163 0 00-2.16-2.16zm14.407 0a2.16 2.16 0 102.161 2.16 2.163 2.163 0 00-2.168-2.16zM74.2 50.34a2.16 2.16 0 102.16 2.16 2.163 2.163 0 00-2.16-2.16zm16.566 2.16a2.161 2.161 0 10-2.161 2.16 2.163 2.163 0 002.156-2.16zm12.247-2.16a2.16 2.16 0 102.161 2.16 2.163 2.163 0 00-2.166-2.16zm-43.22 0a2.16 2.16 0 102.161 2.16 2.163 2.163 0 00-2.166-2.16zm7.2 35.96a2.16 2.16 0 102.159 2.16 2.163 2.163 0 00-2.16-2.16zm14.406-14.38a2.155 2.155 0 102.161 2.15 2.154 2.154 0 00-2.16-2.15zm-14.406 0a2.155 2.155 0 102.159 2.15 2.155 2.155 0 00-2.16-2.15zm-14.408 0a2.155 2.155 0 100 4.31 2.155 2.155 0 10-.001-4.31zm21.611 7.19a2.155 2.155 0 102.16 2.16 2.156 2.156 0 00-2.156-2.16zm-14.407 0a2.155 2.155 0 102.161 2.16 2.157 2.157 0 00-2.162-2.16zm-7.2 21.57a2.16 2.16 0 100 4.32 2.16 2.16 0 10-.005-4.32zm0-96.37a2.155 2.155 0 10-2.162-2.15 2.154 2.154 0 002.157 2.15zm-7.2 2.88a2.155 2.155 0 102.161 2.16 2.163 2.163 0 00-2.17-2.16zm14.408 4.31a2.155 2.155 0 10-2.163-2.15 2.155 2.155 0 002.154 2.15zm-7.2 21.58a2.155 2.155 0 10-2.162-2.16 2.163 2.163 0 002.149 2.16zm-7.2 2.88a2.155 2.155 0 102.161 2.16 2.156 2.156 0 00-2.178-2.16zm14.408 4.31a2.155 2.155 0 10-2.163-2.15 2.155 2.155 0 002.146 2.15zm-14.408-18.7a2.16 2.16 0 102.161 2.16 2.163 2.163 0 00-2.178-2.16zm-13.565.17a2.141 2.141 0 00-.841-.17 2.16 2.16 0 100 4.32 2.16 2.16 0 002.161-2.16 2.168 2.168 0 00-1.337-1.99zm20.769 40.11a2.16 2.16 0 10-2.162-2.16 2.163 2.163 0 002.145 2.16zm-7.2 2.87a2.16 2.16 0 102.161 2.16 2.163 2.163 0 00-2.182-2.16zm14.408 4.32a2.16 2.16 0 10-2.163-2.16 2.163 2.163 0 002.142 2.16zm-14.408-18.7a2.16 2.16 0 102.161 2.16 2.163 2.163 0 00-2.182-2.16zm-13.565.17a2.141 2.141 0 00-.841-.17 2.16 2.16 0 100 4.32 2.141 2.141 0 00.841-.17 2.16 2.16 0 00-.021-3.98zm20.769 40.11a2.16 2.16 0 10-2.162-2.16 2.163 2.163 0 002.141 2.16zm-7.2 2.87a2.16 2.16 0 102.161 2.16 2.163 2.163 0 00-2.186-2.16zm14.408 0a2.16 2.16 0 102.16 2.16 2.163 2.163 0 00-2.185-2.16zM45.405 79.11a2.155 2.155 0 102.161 2.16 2.156 2.156 0 00-2.186-2.16zm-13.565.17a2.141 2.141 0 00-.841-.17 2.157 2.157 0 00-1.992 1.32 2.147 2.147 0 000 1.67 2.157 2.157 0 001.992 1.32 2.154 2.154 0 00.816-4.14zm6.363-50.51a2.155 2.155 0 100 4.31 2.155 2.155 0 10-.025-4.31zm-14.408 0a2.155 2.155 0 102.161 2.15 2.154 2.154 0 00-2.186-2.15zm14.408-14.39a2.16 2.16 0 100 4.32 2.168 2.168 0 001.989-1.32 2.16 2.16 0 00-2.014-3zM16.591 35.96a2.155 2.155 0 102.162 2.16 2.155 2.155 0 00-2.187-2.16zm14.408 0a2.155 2.155 0 102.161 2.16 2.155 2.155 0 00-2.186-2.16zm7.2 21.57a2.16 2.16 0 100 4.32 2.16 2.16 0 00-.021-4.32zm-14.408 0a2.16 2.16 0 102.161 2.16 2.162 2.162 0 00-2.182-2.16zm-14.406 0a2.16 2.16 0 102.16 2.16 2.163 2.163 0 00-2.181-2.16zm28.814-14.38a2.155 2.155 0 00-1.992 1.32 2.117 2.117 0 00-.169.84 2.191 2.191 0 00.169.84 2.162 2.162 0 001.992 1.31 2.147 2.147 0 002.159-2.15 2.1 2.1 0 00-.17-.84 2.152 2.152 0 00-2.01-1.32zm-14.408 0a2.155 2.155 0 102.161 2.16 2.162 2.162 0 00-2.182-2.16zm-14.406 0a2.155 2.155 0 102.16 2.16 2.163 2.163 0 00-2.181-2.16zm7.2 21.57a2.16 2.16 0 102.162 2.16 2.161 2.161 0 00-2.181-2.16zm14.408 0a2.16 2.16 0 102.161 2.16 2.161 2.161 0 00-2.18-2.16zM16.585 50.34a2.16 2.16 0 102.162 2.16 2.161 2.161 0 00-2.181-2.16zm-14.406 0a2.16 2.16 0 102.162 2.16 2.162 2.162 0 00-2.181-2.16zM38.197 86.3a2.16 2.16 0 100 4.32 2.168 2.168 0 001.989-1.32 2.16 2.16 0 00-2.008-3zm0-14.38a2.162 2.162 0 00-1.992 1.31 2.191 2.191 0 00-.169.84 2.117 2.117 0 00.169.84 2.155 2.155 0 001.992 1.32 2.152 2.152 0 001.989-1.32 2.1 2.1 0 00.17-.84 2.147 2.147 0 00-2.178-2.15zm-14.408 0a2.155 2.155 0 102.161 2.15 2.154 2.154 0 00-2.18-2.15z" fill="#34c3ff" fill-rule="evenodd"/></svg>