<svg xmlns="http://www.w3.org/2000/svg" width="20" height="px" viewBox="0 0 20 20"><path d="M5.27 10.652h2.195v9.024c0 .18.144.324.32.324h3.719c.176 0 .32-.145.32-.324v-8.98h2.524c.164 0 .3-.126.32-.286l.383-3.324a.325.325 0 00-.082-.25.312.312 0 00-.239-.11h-2.906v-2.08c0-.63.34-.946 1.008-.946h1.898c.176 0 .32-.144.32-.324V.325a.322.322 0 00-.32-.321h-2.617C12.093 0 12.055 0 11.993 0c-.454 0-2.032.09-3.278 1.234-1.38 1.274-1.188 2.793-1.14 3.055v2.438H5.27a.323.323 0 00-.32.324v3.277c0 .18.144.324.32.324zm0 0"/></svg>