<svg xmlns="http://www.w3.org/2000/svg" width="20" height="px" viewBox="0 0 20 20"><path d="M4.656 6.434H.641a.323.323 0 00-.325.324v12.898c0 .176.145.32.325.32h4.015a.32.32 0 00.32-.32V6.758a.323.323 0 00-.32-.324zM2.648.023A2.65 2.65 0 000 2.668a2.65 2.65 0 002.648 2.648 2.65 2.65 0 002.649-2.648A2.65 2.65 0 002.648.023zm12.219 6.09c-1.613 0-2.805.696-3.527 1.48v-.835a.323.323 0 00-.32-.324H7.172a.323.323 0 00-.32.324v12.898c0 .176.144.32.32.32h4.008c.175 0 .32-.144.32-.32v-6.383c0-2.152.586-2.988 2.086-2.988 1.633 0 1.762 1.344 1.762 3.098v6.273c0 .176.144.32.32.32h4.008c.18 0 .324-.144.324-.32v-7.074c0-3.2-.61-6.469-5.133-6.469zm0 0"/></svg>