<svg xmlns="http://www.w3.org/2000/svg" width="20" height="px" viewBox="0 0 20 20"><path d="M8.617 13.227C8.09 15.98 7.45 18.62 5.551 20c-.586-4.16.86-7.285 1.531-10.605-1.144-1.93.14-5.813 2.555-4.856 2.976 1.176-2.575 7.172 1.152 7.922 3.89.781 5.477-6.75 3.066-9.2C10.367-.272 3.707 3.18 4.527 8.247c.2 1.238 1.48 1.613.512 3.32-2.23-.492-2.898-2.254-2.812-4.597C2.367 3.129 5.676.44 9 .066c4.2-.468 8.145 1.543 8.688 5.497.613 4.46-1.895 9.292-6.387 8.945-1.219-.098-1.73-.7-2.684-1.281zm0 0"/></svg>