<svg xmlns="http://www.w3.org/2000/svg" width="20" height="px" viewBox="0 0 20 20"><path d="M19.547 3.703c-.313.14-.637.258-.969.352.39-.442.692-.961.871-1.532a.32.32 0 00-.105-.351.324.324 0 00-.367-.024 7.67 7.67 0 01-2.25.891 4.307 4.307 0 00-3.004-1.227A4.298 4.298 0 009.465 6.66a11 11 0 01-7.543-4 .335.335 0 00-.277-.12.34.34 0 00-.254.16 4.305 4.305 0 00-.582 2.16c0 1.035.37 2.015 1.023 2.78-.2-.066-.39-.152-.574-.253a.316.316 0 00-.317 0 .327.327 0 00-.164.273v.059a4.31 4.31 0 002.102 3.691 4.736 4.736 0 01-.328-.047.314.314 0 00-.301.102.325.325 0 00-.066.312 4.306 4.306 0 003.144 2.88 7.605 7.605 0 01-4.058 1.155 7.85 7.85 0 01-.91-.05.32.32 0 00-.34.21.324.324 0 00.128.38 11.592 11.592 0 006.262 1.835c4.371 0 7.106-2.062 8.63-3.789 1.901-2.156 2.991-5.011 2.991-7.832 0-.117-.004-.238-.008-.355a8.353 8.353 0 001.922-2.035.329.329 0 00-.02-.387.324.324 0 00-.378-.086zm0 0"/></svg>