<svg xmlns="http://www.w3.org/2000/svg" width="120" height="121" viewBox="0 0 120 121">
  <defs>
    <style>
      .cls-1 {
        fill: #ffb534;
        fill-rule: evenodd;
      }
    </style>
  </defs>
  <path id="Shape_1" class="cls-1" d="M391.989,1011.99c-0.375,0-.748,0-1.121-0.01a0.582,0.582,0,0,1-.576-0.6,0.592,0.592,0,0,1,.6-0.58c1.348,0.02,2.718,0,4.066-.06a0.578,0.578,0,0,1,.616.56,0.6,0.6,0,0,1-.557.62C394.013,1011.97,393,1011.99,391.989,1011.99Zm-5.21-.22a0.1,0.1,0,0,1-.052-0.01c-1.371-.12-2.755-0.29-4.116-0.5a0.592,0.592,0,0,1,.183-1.17c1.333,0.21,2.691.38,4.035,0.5a0.582,0.582,0,0,1,.534.64A0.594,0.594,0,0,1,386.779,1011.77Zm12.3-.2a0.588,0.588,0,0,1-.582-0.52,0.6,0.6,0,0,1,.514-0.66c1.343-.16,2.694-0.37,4.018-0.62a0.59,0.59,0,0,1,.219,1.16c-1.35.26-2.729,0.47-4.1,0.64h-0.07Zm-20.405-1.09a0.583,0.583,0,0,1-.131-0.01c-1.344-.31-2.692-0.67-4.008-1.08a0.59,0.59,0,0,1,.34-1.13c1.291,0.4,2.613.75,3.93,1.06A0.588,0.588,0,0,1,378.671,1010.48Zm28.468-.45a0.594,0.594,0,0,1-.567-0.44,0.586,0.586,0,0,1,.419-0.72c1.3-.35,2.614-0.75,3.893-1.18a0.58,0.58,0,0,1,.744.37,0.594,0.594,0,0,1-.367.75c-1.305.44-2.641,0.85-3.972,1.2A0.772,0.772,0,0,1,407.139,1010.03Zm-36.328-1.95a0.758,0.758,0,0,1-.209-0.04c-1.288-.5-2.575-1.04-3.826-1.63a0.591,0.591,0,0,1-.286-0.78,0.581,0.581,0,0,1,.78-0.29c1.226,0.57,2.488,1.11,3.75,1.59A0.6,0.6,0,0,1,370.811,1008.08Zm44.1-.7a0.594,0.594,0,0,1-.226-1.14c1.243-.53,2.484-1.1,3.69-1.71a0.581,0.581,0,0,1,.788.26,0.587,0.587,0,0,1-.26.79c-1.231.63-2.5,1.21-3.765,1.75A0.611,0.611,0,0,1,414.907,1007.38Zm-51.551-2.79a0.575,0.575,0,0,1-.282-0.07c-1.206-.67-2.406-1.39-3.564-2.14a0.6,0.6,0,0,1-.175-0.82,0.578,0.578,0,0,1,.811-0.18c1.136,0.74,2.312,1.45,3.494,2.1a0.6,0.6,0,0,1,.231.81A0.592,0.592,0,0,1,363.356,1004.59Zm58.88-.93a0.576,0.576,0,0,1-.5-0.29,0.6,0.6,0,0,1,.2-0.81c1.16-.69,2.311-1.43,3.423-2.21a0.6,0.6,0,0,1,.816.15,0.6,0.6,0,0,1-.149.83c-1.134.79-2.309,1.54-3.491,2.25A0.543,0.543,0,0,1,422.236,1003.66Zm-65.783-3.55a0.572,0.572,0,0,1-.35-0.121c-1.105-.833-2.194-1.713-3.236-2.618a0.594,0.594,0,0,1-.062-0.834,0.582,0.582,0,0,1,.827-0.062c1.022,0.886,2.09,1.75,3.173,2.566a0.594,0.594,0,0,1,.119.828A0.6,0.6,0,0,1,356.453,1000.11Zm72.536-1.143a0.583,0.583,0,0,1-.459-0.223,0.6,0.6,0,0,1,.093-0.832c1.052-.845,2.092-1.741,3.091-2.663a0.584,0.584,0,0,1,.83.037,0.6,0.6,0,0,1-.037.836c-1.019.941-2.08,1.854-3.153,2.716A0.586,0.586,0,0,1,428.989,998.967Zm-78.76-4.259a0.581,0.581,0,0,1-.412-0.171c-0.98-.976-1.939-2-2.849-3.039a0.6,0.6,0,0,1,.052-0.835,0.583,0.583,0,0,1,.828.052c0.893,1.02,1.833,2.022,2.794,2.98a0.6,0.6,0,0,1,0,.836A0.581,0.581,0,0,1,350.229,994.708Zm84.813-1.33a0.581,0.581,0,0,1-.4-0.163,0.6,0.6,0,0,1-.021-0.837c0.93-.985,1.839-2.017,2.7-3.066a0.583,0.583,0,0,1,.826-0.078,0.6,0.6,0,0,1,.077.834c-0.879,1.069-1.806,2.121-2.754,3.126A0.585,0.585,0,0,1,435.042,993.378ZM344.8,988.5a0.585,0.585,0,0,1-.467-0.231c-0.834-1.1-1.644-2.243-2.407-3.4a0.6,0.6,0,0,1,.164-0.82,0.585,0.585,0,0,1,.814.166c0.748,1.138,1.543,2.26,2.361,3.336a0.6,0.6,0,0,1-.109.83A0.581,0.581,0,0,1,344.8,988.5ZM440.28,987a0.576,0.576,0,0,1-.341-0.111,0.593,0.593,0,0,1-.135-0.825c0.791-1.111,1.551-2.259,2.258-3.412a0.584,0.584,0,0,1,.808-0.192,0.594,0.594,0,0,1,.191.814c-0.722,1.176-1.5,2.347-2.3,3.479A0.584,0.584,0,0,1,440.28,987Zm-100.01-5.4a0.585,0.585,0,0,1-.511-0.3c-0.679-1.206-1.324-2.451-1.919-3.7a0.6,0.6,0,0,1,.275-0.79,0.584,0.584,0,0,1,.783.278c0.584,1.227,1.217,2.448,1.882,3.631a0.593,0.593,0,0,1-.221.806A0.582,0.582,0,0,1,340.27,981.607ZM444.6,979.961a0.581,0.581,0,0,1-.272-0.069,0.593,0.593,0,0,1-.246-0.8c0.631-1.209,1.226-2.452,1.77-3.694a0.586,0.586,0,0,1,.773-0.3,0.6,0.6,0,0,1,.3.781c-0.555,1.268-1.162,2.535-1.806,3.769A0.588,0.588,0,0,1,444.6,979.961Zm-107.875-5.808a0.588,0.588,0,0,1-.546-0.374c-0.506-1.288-.975-2.613-1.393-3.939a0.588,0.588,0,1,1,1.119-.359c0.41,1.3.869,2.6,1.366,3.861a0.593,0.593,0,0,1-.33.768A0.57,0.57,0,0,1,336.726,974.153Zm111.189-1.772a0.572,0.572,0,0,1-.2-0.036,0.593,0.593,0,0,1-.354-0.757c0.457-1.277.875-2.59,1.244-3.9a0.586,0.586,0,0,1,.724-0.408,0.592,0.592,0,0,1,.4.73c-0.376,1.339-.8,2.678-1.269,3.982A0.587,0.587,0,0,1,447.915,972.381Zm-113.677-6.115a0.587,0.587,0,0,1-.569-0.452c-0.325-1.345-.606-2.723-0.838-4.094a0.587,0.587,0,1,1,1.157-.2c0.227,1.345.5,2.7,0.821,4.015a0.592,0.592,0,0,1-.431.715A0.614,0.614,0,0,1,334.238,966.266Zm115.915-1.849a0.619,0.619,0,0,1-.121-0.011,0.592,0.592,0,0,1-.454-0.7c0.276-1.334.509-2.692,0.694-4.038a0.583,0.583,0,0,1,.661-0.506,0.59,0.59,0,0,1,.5.667c-0.187,1.374-.426,2.76-0.708,4.119A0.587,0.587,0,0,1,450.153,964.417ZM332.86,958.109a0.588,0.588,0,0,1-.583-0.533c-0.137-1.382-.228-2.785-0.271-4.171a0.587,0.587,0,1,1,1.174-.036c0.042,1.359.13,2.734,0.265,4.09a0.591,0.591,0,0,1-.525.648Zm118.414-1.888h-0.041a0.592,0.592,0,0,1-.546-0.631c0.092-1.355.138-2.734,0.138-4.1,0-1.245-.038-2.507-0.115-3.751a0.591,0.591,0,0,1,.549-0.628,0.583,0.583,0,0,1,.622.555c0.079,1.267.118,2.554,0.118,3.824,0,1.389-.047,2.795-0.14,4.177A0.589,0.589,0,0,1,451.274,956.221Zm-118.667-6.383h-0.023a0.589,0.589,0,0,1-.564-0.613c0.051-1.391.149-2.794,0.294-4.169a0.587,0.587,0,1,1,1.167.124c-0.141,1.349-.238,2.725-0.289,4.089A0.587,0.587,0,0,1,332.607,949.838ZM450.9,944.176a0.588,0.588,0,0,1-.581-0.513c-0.177-1.35-.4-2.71-0.671-4.043a0.587,0.587,0,1,1,1.15-.236c0.274,1.36.5,2.747,0.684,4.124a0.588,0.588,0,0,1-.5.663A0.506,0.506,0,0,1,450.9,944.176ZM333.47,941.61a0.583,0.583,0,0,1-.578-0.694c0.239-1.368.529-2.743,0.861-4.09a0.584,0.584,0,0,1,.711-0.431,0.592,0.592,0,0,1,.428.717c-0.326,1.32-.61,2.669-0.844,4.009A0.589,0.589,0,0,1,333.47,941.61Zm115.794-5.541a0.589,0.589,0,0,1-.565-0.435c-0.359-1.309-.769-2.624-1.22-3.909a0.593,0.593,0,0,1,.358-0.756,0.586,0.586,0,0,1,.749.361c0.46,1.311.878,2.653,1.244,3.989a0.592,0.592,0,0,1-.409.728A0.607,0.607,0,0,1,449.264,936.069Zm-113.811-2.488a0.6,0.6,0,0,1-.181-0.029,0.593,0.593,0,0,1-.377-0.746c0.425-1.318.9-2.642,1.418-3.934a0.586,0.586,0,0,1,.764-0.328,0.593,0.593,0,0,1,.325.77c-0.506,1.267-.974,2.565-1.39,3.857A0.587,0.587,0,0,1,335.453,933.581Zm111.081-5.309a0.589,0.589,0,0,1-.54-0.357c-0.534-1.242-1.12-2.487-1.744-3.7a0.6,0.6,0,0,1,.252-0.8,0.586,0.586,0,0,1,.791.253c0.635,1.236,1.234,2.5,1.779,3.772a0.594,0.594,0,0,1-.306.778A0.564,0.564,0,0,1,446.534,928.272ZM338.527,925.9a0.586,0.586,0,0,1-.256-0.06,0.592,0.592,0,0,1-.271-0.79c0.6-1.249,1.257-2.493,1.944-3.7a0.586,0.586,0,0,1,.8-0.218,0.594,0.594,0,0,1,.216.808c-0.674,1.181-1.316,2.4-1.907,3.624A0.585,0.585,0,0,1,338.527,925.9Zm104.23-4.965a0.586,0.586,0,0,1-.5-0.284c-0.7-1.159-1.454-2.31-2.235-3.422a0.6,0.6,0,0,1,.139-0.825,0.583,0.583,0,0,1,.818.141c0.8,1.133,1.565,2.307,2.28,3.49a0.6,0.6,0,0,1-.2.814A0.583,0.583,0,0,1,442.757,920.932ZM342.625,918.72a0.585,0.585,0,0,1-.327-0.1,0.6,0.6,0,0,1-.159-0.821c0.767-1.153,1.585-2.293,2.43-3.389a0.584,0.584,0,0,1,.824-0.105,0.6,0.6,0,0,1,.1.831c-0.829,1.074-1.631,2.193-2.384,3.323A0.587,0.587,0,0,1,342.625,918.72Zm95.388-4.536a0.584,0.584,0,0,1-.455-0.217c-0.857-1.056-1.759-2.094-2.681-3.083a0.6,0.6,0,0,1,.026-0.836,0.584,0.584,0,0,1,.83.026c0.94,1.009,1.86,2.067,2.734,3.143a0.6,0.6,0,0,1-.083.833A0.58,0.58,0,0,1,438.013,914.184Zm-90.35-2a0.581,0.581,0,0,1-.391-0.151,0.6,0.6,0,0,1-.047-0.836c0.916-1.033,1.881-2.049,2.868-3.02a0.584,0.584,0,0,1,.83.011,0.6,0.6,0,0,1-.01.836c-0.969.952-1.914,1.949-2.812,2.962A0.586,0.586,0,0,1,347.663,912.182Zm84.729-4.03a0.582,0.582,0,0,1-.4-0.157c-0.992-.928-2.027-1.831-3.076-2.684a0.6,0.6,0,0,1-.088-0.832,0.583,0.583,0,0,1,.825-0.089c1.07,0.87,2.126,1.791,3.136,2.737a0.6,0.6,0,0,1,.032.836A0.582,0.582,0,0,1,432.392,908.152ZM353.541,906.4a0.583,0.583,0,0,1-.448-0.209,0.6,0.6,0,0,1,.067-0.834c1.05-.9,2.144-1.772,3.251-2.594a0.582,0.582,0,0,1,.82.124,0.594,0.594,0,0,1-.123.827c-1.086.807-2.159,1.663-3.188,2.545A0.58,0.58,0,0,1,353.541,906.4ZM426,902.953a0.573,0.573,0,0,1-.336-0.107c-1.105-.779-2.253-1.53-3.412-2.233a0.594,0.594,0,0,1-.2-0.812,0.582,0.582,0,0,1,.805-0.2c1.183,0.717,2.354,1.483,3.481,2.278a0.594,0.594,0,0,1,.144.823A0.583,0.583,0,0,1,426,902.953ZM360.145,901.5a0.584,0.584,0,0,1-.5-0.275,0.6,0.6,0,0,1,.18-0.817c1.162-.745,2.364-1.457,3.572-2.119a0.585,0.585,0,0,1,.8.238,0.593,0.593,0,0,1-.236.8c-1.185.649-2.363,1.348-3.5,2.078A0.579,0.579,0,0,1,360.145,901.5Zm58.815-2.807a0.565,0.565,0,0,1-.266-0.065c-1.2-.618-2.442-1.2-3.687-1.737a0.594,0.594,0,0,1-.31-0.776,0.584,0.584,0,0,1,.77-0.313c1.27,0.545,2.535,1.141,3.761,1.772a0.6,0.6,0,0,1,.256.8A0.587,0.587,0,0,1,418.96,898.688Zm-51.607-1.138a0.587,0.587,0,0,1-.535-0.346,0.594,0.594,0,0,1,.291-0.784c1.251-.576,2.538-1.114,3.826-1.6a0.584,0.584,0,0,1,.755.347,0.592,0.592,0,0,1-.344.761c-1.262.477-2.523,1-3.75,1.569A0.586,0.586,0,0,1,367.353,897.55Zm44.047-2.106a0.582,0.582,0,0,1-.192-0.032c-1.274-.444-2.582-0.849-3.886-1.2a0.591,0.591,0,0,1,.3-1.143c1.331,0.361,2.665.774,3.965,1.227A0.592,0.592,0,0,1,411.4,895.444Zm-36.367-.795a0.592,0.592,0,0,1-.167-1.159c1.321-.395,2.671-0.749,4.014-1.05a0.591,0.591,0,0,1,.256,1.154c-1.317.3-2.641,0.643-3.935,1.03A0.58,0.58,0,0,1,375.033,894.649Zm28.442-1.356a0.564,0.564,0,0,1-.114-0.011c-1.324-.261-2.675-0.48-4.014-0.648a0.592,0.592,0,0,1,.146-1.174c1.365,0.171,2.743.395,4.094,0.66A0.593,0.593,0,0,1,403.475,893.293Zm-20.431-.444a0.592,0.592,0,0,1-.087-1.177c1.358-.207,2.743-0.368,4.118-0.481a0.591,0.591,0,0,1,.1,1.179c-1.348.111-2.707,0.27-4.038,0.473A0.662,0.662,0,0,1,383.044,892.849Zm12.287-.581H395.3c-1.344-.075-2.719-0.105-4.064-0.087h-0.008a0.592,0.592,0,0,1-.007-1.184c1.377-.018,2.774.013,4.145,0.089A0.592,0.592,0,0,1,395.331,892.268ZM391.99,999.773c-1.257,0-2.526-.05-3.772-0.148a0.59,0.59,0,0,1-.539-0.635,0.579,0.579,0,0,1,.631-0.544c1.215,0.1,2.452.144,3.679,0.144l0.374,0h0a0.592,0.592,0,0,1,0,1.183Zm4.477-.212a0.591,0.591,0,0,1-.055-1.179c1.344-.129,2.7-0.316,4.017-0.56a0.592,0.592,0,0,1,.211,1.165c-1.355.249-2.74,0.441-4.118,0.572A0.515,0.515,0,0,1,396.467,999.561Zm-12.278-.434a0.544,0.544,0,0,1-.1-0.008c-1.364-.228-2.732-0.519-4.066-0.865a0.591,0.591,0,0,1,.292-1.146c1.3,0.337,2.636.621,3.967,0.844A0.592,0.592,0,0,1,384.189,999.127Zm20.349-1.05a0.593,0.593,0,0,1-.155-1.163c1.3-.359,2.6-0.781,3.859-1.253a0.586,0.586,0,0,1,.754.348,0.592,0.592,0,0,1-.346.761c-1.293.484-2.624,0.917-3.956,1.285A0.57,0.57,0,0,1,404.538,998.077Zm-28.294-1.01a0.586,0.586,0,0,1-.2-0.034c-1.3-.463-2.6-0.991-3.858-1.567a0.593,0.593,0,0,1-.291-0.783,0.584,0.584,0,0,1,.777-0.294c1.227,0.562,2.493,1.076,3.763,1.528A0.593,0.593,0,0,1,376.244,997.067Zm35.984-1.867a0.586,0.586,0,0,1-.531-0.339,0.594,0.594,0,0,1,.279-0.788c1.214-.581,2.42-1.223,3.584-1.91a0.584,0.584,0,0,1,.8.212,0.593,0.593,0,0,1-.21.809c-1.193.705-2.43,1.364-3.674,1.958A0.579,0.579,0,0,1,412.228,995.2Zm-43.457-1.558a0.58,0.58,0,0,1-.288-0.076c-1.2-.684-2.389-1.43-3.529-2.217a0.594,0.594,0,0,1-.153-0.822,0.584,0.584,0,0,1,.816-0.154c1.112,0.768,2.271,1.5,3.443,2.163a0.6,0.6,0,0,1,.223.806A0.586,0.586,0,0,1,368.771,993.642Zm50.536-2.621a0.586,0.586,0,0,1-.48-0.25,0.6,0.6,0,0,1,.14-0.825c1.1-.785,2.177-1.629,3.2-2.506a0.583,0.583,0,0,1,.827.069,0.6,0.6,0,0,1-.068.834c-1.053.9-2.158,1.763-3.285,2.569A0.584,0.584,0,0,1,419.307,991.021ZM362,988.966a0.577,0.577,0,0,1-.372-0.134c-1.069-.884-2.111-1.825-3.1-2.8a0.6,0.6,0,0,1-.009-0.837,0.584,0.584,0,0,1,.83-0.01c0.961,0.948,1.978,1.866,3.021,2.729a0.6,0.6,0,0,1,.081.832A0.583,0.583,0,0,1,362,988.966Zm63.565-3.293a0.585,0.585,0,0,1-.414-0.172,0.6,0.6,0,0,1,0-.837c0.948-.962,1.867-1.98,2.731-3.024a0.582,0.582,0,0,1,.826-0.075,0.594,0.594,0,0,1,.075.833c-0.885,1.07-1.827,2.113-2.8,3.1A0.584,0.584,0,0,1,425.566,985.673Zm-69.436-2.486a0.584,0.584,0,0,1-.445-0.207c-0.9-1.052-1.765-2.159-2.574-3.29a0.6,0.6,0,0,1,.133-0.826,0.585,0.585,0,0,1,.82.134c0.789,1.1,1.633,2.183,2.511,3.211a0.6,0.6,0,0,1-.062.834A0.579,0.579,0,0,1,356.13,983.187Zm74.691-3.867a0.578,0.578,0,0,1-.335-0.106,0.6,0.6,0,0,1-.146-0.824c0.77-1.115,1.5-2.276,2.173-3.454a0.584,0.584,0,0,1,.8-0.218,0.594,0.594,0,0,1,.216.808c-0.689,1.208-1.439,2.4-2.228,3.54A0.585,0.585,0,0,1,430.821,979.32Zm-79.486-2.844a0.587,0.587,0,0,1-.5-0.288c-0.706-1.195-1.37-2.436-1.972-3.689a0.594,0.594,0,0,1,.273-0.79,0.585,0.585,0,0,1,.784.275c0.587,1.221,1.234,2.432,1.924,3.6a0.594,0.594,0,0,1-.2.81A0.578,0.578,0,0,1,351.335,976.476Zm83.577-4.33a0.586,0.586,0,0,1-.247-0.054,0.6,0.6,0,0,1-.285-0.786c0.567-1.231,1.087-2.5,1.546-3.781a0.587,0.587,0,0,1,.752-0.356,0.594,0.594,0,0,1,.352.758c-0.471,1.311-1,2.616-1.585,3.877A0.586,0.586,0,0,1,434.912,972.146Zm-87.151-3.112a0.587,0.587,0,0,1-.548-0.382c-0.491-1.3-.93-2.64-1.307-3.979a0.588,0.588,0,1,1,1.13-.323c0.366,1.306.8,2.612,1.274,3.881A0.591,0.591,0,0,1,347.761,969.034Zm89.945-4.667a0.56,0.56,0,0,1-.151-0.02,0.591,0.591,0,0,1-.417-0.723c0.345-1.308.637-2.651,0.87-3.993a0.587,0.587,0,1,1,1.156.2c-0.238,1.375-.537,2.753-0.891,4.094A0.587,0.587,0,0,1,437.706,964.367Zm-92.18-3.292a0.589,0.589,0,0,1-.576-0.481c-0.258-1.362-.46-2.757-0.6-4.146a0.587,0.587,0,1,1,1.168-.121c0.138,1.356.335,2.717,0.586,4.046a0.591,0.591,0,0,1-.466.692A0.715,0.715,0,0,1,345.526,961.075Zm93.589-4.856a0.435,0.435,0,0,1-.051,0,0.59,0.59,0,0,1-.534-0.64c0.114-1.347.173-2.72,0.173-4.084q0-.756-0.024-1.507a0.591,0.591,0,0,1,.568-0.611,0.578,0.578,0,0,1,.6.574q0.026,0.768.025,1.544c0,1.4-.06,2.806-0.178,4.186A0.588,0.588,0,0,1,439.115,956.219Zm-94.422-3.371a0.59,0.59,0,0,1-.587-0.583c0-.256-0.006-0.514-0.006-0.771,0-1.136.039-2.286,0.118-3.416a0.587,0.587,0,1,1,1.171.082c-0.076,1.1-.115,2.225-0.115,3.333,0,0.251,0,.5.006,0.754a0.59,0.59,0,0,1-.578.6h-0.009Zm94.268-6.417a0.589,0.589,0,0,1-.582-0.521c-0.159-1.353-.378-2.71-0.651-4.035a0.588,0.588,0,1,1,1.15-.241c0.279,1.358.5,2.75,0.667,4.136a0.59,0.59,0,0,1-.514.657A0.548,0.548,0,0,1,438.961,946.431ZM345.267,944.6a0.57,0.57,0,0,1-.092-0.007,0.59,0.59,0,0,1-.488-0.676c0.215-1.375.493-2.757,0.825-4.108a0.587,0.587,0,1,1,1.139.285c-0.324,1.318-.6,2.666-0.805,4.007A0.589,0.589,0,0,1,345.267,944.6Zm92.026-6.263a0.588,0.588,0,0,1-.562-0.421c-0.388-1.3-.838-2.6-1.336-3.86a0.593,0.593,0,0,1,.328-0.769,0.584,0.584,0,0,1,.762.33c0.511,1.292.972,2.624,1.37,3.957a0.593,0.593,0,0,1-.393.737A0.556,0.556,0,0,1,437.293,938.334Zm-90.047-1.762a0.607,0.607,0,0,1-.191-0.032,0.593,0.593,0,0,1-.364-0.752c0.448-1.316.961-2.628,1.523-3.9a0.586,0.586,0,0,1,.775-0.3,0.594,0.594,0,0,1,.3.781c-0.549,1.244-1.049,2.524-1.486,3.806A0.588,0.588,0,0,1,347.246,936.572Zm87.01-5.919a0.586,0.586,0,0,1-.525-0.326c-0.605-1.21-1.271-2.409-1.98-3.567a0.593,0.593,0,0,1,.19-0.814,0.585,0.585,0,0,1,.808.192c0.728,1.186,1.41,2.416,2.03,3.657a0.593,0.593,0,0,1-.26.794A0.57,0.57,0,0,1,434.256,930.653Zm-83.674-1.643a0.574,0.574,0,0,1-.284-0.074,0.593,0.593,0,0,1-.229-0.8c0.668-1.216,1.4-2.419,2.171-3.575a0.583,0.583,0,0,1,.814-0.16,0.594,0.594,0,0,1,.159.821c-0.753,1.128-1.465,2.3-2.117,3.487A0.586,0.586,0,0,1,350.582,929.01Zm79.36-5.392a0.582,0.582,0,0,1-.471-0.238c-0.8-1.086-1.665-2.153-2.561-3.17a0.594,0.594,0,0,1,.048-0.835,0.583,0.583,0,0,1,.829.049c0.919,1.042,1.8,2.135,2.625,3.249a0.6,0.6,0,0,1-.12.829A0.588,0.588,0,0,1,429.942,923.618Zm-74.776-1.47a0.576,0.576,0,0,1-.368-0.132,0.6,0.6,0,0,1-.089-0.832c0.867-1.082,1.791-2.139,2.749-3.144a0.584,0.584,0,0,1,.83-0.017,0.6,0.6,0,0,1,.017.837c-0.935.98-1.837,2.013-2.682,3.068A0.584,0.584,0,0,1,355.166,922.148Zm69.324-4.712a0.589,0.589,0,0,1-.4-0.161c-0.978-.934-2.009-1.836-3.064-2.68a0.6,0.6,0,0,1-.095-0.832,0.584,0.584,0,0,1,.825-0.1c1.082,0.866,2.138,1.79,3.141,2.746a0.6,0.6,0,0,1,.023.837A0.584,0.584,0,0,1,424.49,917.436Zm-63.637-1.253a0.584,0.584,0,0,1-.442-0.2,0.6,0.6,0,0,1,.055-0.836c1.038-.916,2.13-1.8,3.244-2.621a0.584,0.584,0,0,1,.82.128,0.594,0.594,0,0,1-.127.826c-1.086.8-2.151,1.664-3.164,2.558A0.582,0.582,0,0,1,360.853,916.183Zm57.21-3.893a0.585,0.585,0,0,1-.323-0.1c-1.123-.75-2.293-1.459-3.476-2.108a0.593,0.593,0,0,1-.236-0.8,0.585,0.585,0,0,1,.8-0.237c1.214,0.665,2.413,1.391,3.564,2.16a0.6,0.6,0,0,1,.165.82A0.583,0.583,0,0,1,418.063,912.29Zm-50.593-1a0.584,0.584,0,0,1-.5-0.285,0.594,0.594,0,0,1,.2-0.812c1.181-.723,2.406-1.4,3.643-2.017a0.584,0.584,0,0,1,.786.268,0.6,0.6,0,0,1-.266.793c-1.207.6-2.4,1.263-3.553,1.967A0.588,0.588,0,0,1,367.47,911.294Zm43.382-2.954a0.573,0.573,0,0,1-.234-0.05c-1.234-.542-2.508-1.036-3.787-1.466a0.6,0.6,0,0,1-.37-0.75,0.588,0.588,0,0,1,.743-0.373c1.312,0.442,2.618.948,3.883,1.5a0.593,0.593,0,0,1,.3.779A0.585,0.585,0,0,1,410.852,908.34Zm-36.028-.707a0.585,0.585,0,0,1-.546-0.377,0.594,0.594,0,0,1,.333-0.767c1.288-.5,2.613-0.959,3.936-1.349a0.584,0.584,0,0,1,.728.4,0.593,0.593,0,0,1-.4.734c-1.291.379-2.582,0.821-3.838,1.316A0.6,0.6,0,0,1,374.824,907.633Zm28.247-1.922a0.539,0.539,0,0,1-.137-0.016c-1.308-.316-2.647-0.578-3.98-0.779a0.592,0.592,0,0,1,.173-1.171c1.367,0.206,2.74.476,4.081,0.8A0.591,0.591,0,0,1,403.071,905.711Zm-20.372-.4a0.592,0.592,0,0,1-.115-1.172c1.354-.272,2.736-0.486,4.109-0.639a0.592,0.592,0,0,1,.128,1.177c-1.339.148-2.687,0.358-4.007,0.623A0.574,0.574,0,0,1,382.7,905.315Zm12.259-.827h-0.036c-1.346-.083-2.711-0.109-4.055-0.078a0.6,0.6,0,0,1-.6-0.577,0.591,0.591,0,0,1,.573-0.606c1.377-.032,2.777-0.006,4.155.08A0.592,0.592,0,0,1,394.958,904.488Zm-4.735,83.322h-0.03a35.923,35.923,0,0,1-4.148-.448,0.59,0.59,0,0,1-.483-0.68,0.582,0.582,0,0,1,.675-0.487,34.928,34.928,0,0,0,4.014.433A0.592,0.592,0,0,1,390.223,987.81Zm4.1-.033a0.592,0.592,0,0,1-.037-1.182,35.065,35.065,0,0,0,4.006-.5,0.592,0.592,0,0,1,.211,1.164,35.819,35.819,0,0,1-4.14.515h-0.04Zm-12.189-1.32a0.58,0.58,0,0,1-.163-0.024,35.7,35.7,0,0,1-3.937-1.4,0.593,0.593,0,0,1-.314-0.774,0.586,0.586,0,0,1,.769-0.317A34.521,34.521,0,0,0,382.3,985.3,0.593,0.593,0,0,1,382.137,986.457Zm20.252-.165a0.592,0.592,0,0,1-.172-1.157A35.037,35.037,0,0,0,406,983.719a0.584,0.584,0,0,1,.774.3,0.594,0.594,0,0,1-.3.779,35.871,35.871,0,0,1-3.913,1.464A0.57,0.57,0,0,1,402.389,986.292Zm-27.814-3.035a0.579,0.579,0,0,1-.288-0.077,36.233,36.233,0,0,1-3.511-2.277,0.6,0.6,0,0,1-.128-0.826,0.584,0.584,0,0,1,.82-0.131,35.052,35.052,0,0,0,3.4,2.2,0.6,0.6,0,0,1,.223.807A0.589,0.589,0,0,1,374.575,983.257Zm35.318-.285a0.588,0.588,0,0,1-.507-0.293,0.6,0.6,0,0,1,.21-0.81,34.787,34.787,0,0,0,3.359-2.255,0.583,0.583,0,0,1,.822.116,0.6,0.6,0,0,1-.116.829,36.023,36.023,0,0,1-3.472,2.331A0.571,0.571,0,0,1,409.893,982.972Zm-41.945-4.581a0.581,0.581,0,0,1-.4-0.157,36.639,36.639,0,0,1-2.9-3.024,0.6,0.6,0,0,1,.062-0.834,0.582,0.582,0,0,1,.828.062,35.709,35.709,0,0,0,2.806,2.926,0.594,0.594,0,0,1,.034.836A0.582,0.582,0,0,1,367.948,978.391ZM416.44,978a0.579,0.579,0,0,1-.425-0.184,0.593,0.593,0,0,1,.021-0.836,35.266,35.266,0,0,0,2.76-2.971,0.583,0.583,0,0,1,.827-0.075,0.594,0.594,0,0,1,.075.833,36.668,36.668,0,0,1-2.853,3.07A0.583,0.583,0,0,1,416.44,978ZM362.6,972.13a0.585,0.585,0,0,1-.487-0.26,36.662,36.662,0,0,1-2.137-3.611,0.6,0.6,0,0,1,.25-0.8,0.585,0.585,0,0,1,.791.252,35.506,35.506,0,0,0,2.068,3.494,0.594,0.594,0,0,1-.157.822A0.579,0.579,0,0,1,362.6,972.13Zm59.089-.474a0.588,0.588,0,0,1-.321-0.1,0.6,0.6,0,0,1-.169-0.819,35.334,35.334,0,0,0,2.013-3.53,0.583,0.583,0,0,1,.787-0.264,0.594,0.594,0,0,1,.263.794,36.675,36.675,0,0,1-2.081,3.647A0.586,0.586,0,0,1,421.69,971.656ZM358.817,964.8a0.587,0.587,0,0,1-.549-0.381,36.876,36.876,0,0,1-1.255-4.013,0.593,0.593,0,0,1,.426-0.719,0.587,0.587,0,0,1,.713.429A35.415,35.415,0,0,0,359.365,964a0.593,0.593,0,0,1-.34.763A0.585,0.585,0,0,1,358.817,964.8Zm66.541-.539a0.6,0.6,0,0,1-.2-0.035,0.593,0.593,0,0,1-.352-0.758,35.186,35.186,0,0,0,1.151-3.9,0.587,0.587,0,1,1,1.143.27,36.533,36.533,0,0,1-1.19,4.036A0.589,0.589,0,0,1,425.358,964.262Zm-68.546-7.474a0.588,0.588,0,0,1-.581-0.514,36.944,36.944,0,0,1-.3-4.194,0.59,0.59,0,0,1,.578-0.6h0.009a0.59,0.59,0,0,1,.587.583,35.49,35.49,0,0,0,.294,4.058,0.592,0.592,0,0,1-.5.664C356.863,956.786,356.838,956.788,356.812,956.788Zm70.422-.572a0.512,0.512,0,0,1-.067,0,0.589,0.589,0,0,1-.516-0.655,36.26,36.26,0,0,0,.23-4.064c0-.381-0.006-0.761-0.018-1.137a0.587,0.587,0,1,1,1.173-.038q0.019,0.585.018,1.176a37.255,37.255,0,0,1-.238,4.2A0.587,0.587,0,0,1,427.234,956.216Zm-70.551-7.688-0.059,0a0.591,0.591,0,0,1-.526-0.647,36.843,36.843,0,0,1,.649-4.156,0.588,0.588,0,1,1,1.148.252,35.589,35.589,0,0,0-.629,4.019A0.589,0.589,0,0,1,356.683,948.528Zm70.4-1.722a0.588,0.588,0,0,1-.58-0.5,35.364,35.364,0,0,0-.822-3.984,0.592,0.592,0,0,1,.415-0.725,0.585,0.585,0,0,1,.719.417,36.56,36.56,0,0,1,.85,4.119,0.592,0.592,0,0,1-.5.672A0.636,0.636,0,0,1,427.083,946.806Zm-68.656-6.354a0.584,0.584,0,0,1-.191-0.032,0.593,0.593,0,0,1-.363-0.753,36.711,36.711,0,0,1,1.584-3.894,0.583,0.583,0,0,1,.783-0.277,0.593,0.593,0,0,1,.276.789,35.387,35.387,0,0,0-1.534,3.767A0.587,0.587,0,0,1,358.427,940.452Zm66.524-1.624a0.586,0.586,0,0,1-.545-0.373,35.122,35.122,0,0,0-1.711-3.683,0.592,0.592,0,0,1,.237-0.8,0.583,0.583,0,0,1,.795.237,36.315,36.315,0,0,1,1.769,3.809,0.592,0.592,0,0,1-.327.769A0.578,0.578,0,0,1,424.951,938.828ZM361.975,933a0.582,0.582,0,0,1-.313-0.091,0.6,0.6,0,0,1-.182-0.816,36.5,36.5,0,0,1,2.43-3.422,0.584,0.584,0,0,1,.825-0.088,0.6,0.6,0,0,1,.088.832,35.435,35.435,0,0,0-2.351,3.31A0.582,0.582,0,0,1,361.975,933Zm59.078-1.435a0.582,0.582,0,0,1-.481-0.253,35.6,35.6,0,0,0-2.506-3.191,0.6,0.6,0,0,1,.048-0.835,0.584,0.584,0,0,1,.829.049,36.372,36.372,0,0,1,2.589,3.3,0.593,0.593,0,0,1-.143.823A0.579,0.579,0,0,1,421.053,931.564Zm-53.928-5a0.587,0.587,0,0,1-.419-0.177,0.6,0.6,0,0,1,.007-0.837,36.633,36.633,0,0,1,3.14-2.771,0.584,0.584,0,0,1,.824.1,0.6,0.6,0,0,1-.1.831,35.4,35.4,0,0,0-3.038,2.681A0.583,0.583,0,0,1,367.125,926.568ZM415.6,925.39a0.584,0.584,0,0,1-.39-0.15,35.539,35.539,0,0,0-3.163-2.533,0.593,0.593,0,0,1-.142-0.823,0.584,0.584,0,0,1,.818-0.144A36.6,36.6,0,0,1,416,924.357a0.594,0.594,0,0,1,.047.835A0.581,0.581,0,0,1,415.6,925.39Zm-42.011-3.9a0.584,0.584,0,0,1-.5-0.284,0.594,0.594,0,0,1,.2-0.812,36.1,36.1,0,0,1,3.684-1.973,0.591,0.591,0,0,1,.49,1.076,34.756,34.756,0,0,0-3.565,1.908A0.581,0.581,0,0,1,373.593,921.492Zm35.306-.86a0.577,0.577,0,0,1-.279-0.072,34.843,34.843,0,0,0-3.655-1.732,0.593,0.593,0,0,1-.326-0.769,0.584,0.584,0,0,1,.763-0.329,35.6,35.6,0,0,1,3.778,1.791A0.592,0.592,0,0,1,408.9,920.632Zm-27.857-2.581a0.593,0.593,0,0,1-.182-1.155,35.588,35.588,0,0,1,4.039-1.061,0.591,0.591,0,0,1,.229,1.16,34.55,34.55,0,0,0-3.9,1.027A0.61,0.61,0,0,1,381.042,918.051Zm20.247-.494a0.589,0.589,0,0,1-.154-0.021,34.79,34.79,0,0,0-3.951-.834,0.592,0.592,0,0,1,.174-1.171,35.615,35.615,0,0,1,4.084.863A0.592,0.592,0,0,1,401.289,917.557Zm-12.211-1.123a0.592,0.592,0,0,1-.047-1.182c0.976-.08,1.967-0.12,2.947-0.12,0.424-.009.818,0.006,1.225,0.02a0.591,0.591,0,0,1-.039,1.182c-0.394-.012-0.771-0.007-1.186-0.019-0.948,0-1.908.039-2.852,0.116Z" transform="translate(-332 -891)"/>
</svg>
